<?xml version="1.0" standalone="no"?>
<!DOCTYPE svg PUBLIC "-//W3C//DTD SVG 1.1//EN" "http://www.w3.org/Graphics/SVG/1.1/DTD/svg11.dtd" >
<svg>
<metadata>
Created by FontForge 20090914 at Wed Jul 19 20:21:49 2017
 By www-data
Typeface &#194;&#169; The Monotype Corporation plc. Data &#194;&#169; The Monotype Corporation plc/Type Solutions Inc. 1990-1992. All Rights Reserved
</metadata>
<defs>
<font id="ArialArmenianMT" horiz-adv-x="1139" >
  <font-face 
    font-family="Arial Armenian"
    font-weight="400"
    font-stretch="normal"
    units-per-em="2048"
    panose-1="2 11 6 4 2 2 2 2 2 4"
    ascent="1638"
    descent="-410"
    x-height="1062"
    cap-height="1466"
    bbox="-94 -432 2048 1854"
    underline-thickness="150"
    underline-position="-142"
    unicode-range="U+0020-U+2122"
  />
<missing-glyph horiz-adv-x="1854" 
d="M115 0v1854h1624v-1854h-1624zM1624 115v1624h-1394v-1624h1394z" />
    <glyph glyph-name=".notdef" horiz-adv-x="1854" 
d="M115 0v1854h1624v-1854h-1624zM1624 115v1624h-1394v-1624h1394z" />
    <glyph glyph-name="space" unicode=" " horiz-adv-x="569" 
 />
    <glyph glyph-name="exclam" unicode="!" horiz-adv-x="569" 
d="M231 364l-55 777v325h223v-325l-52 -777h-116zM184 0v205h207v-205h-207z" />
    <glyph glyph-name="quotedbl" unicode="&#x22;" horiz-adv-x="727" 
d="M144 947l-50 279v240h205v-240l-45 -279h-110zM475 947l-49 279v240h205v-240l-48 -279h-108z" />
    <glyph glyph-name="numbersign" unicode="#" 
d="M103 -25l87 426h-169v149h199l74 363h-273v149h303l87 429h150l-87 -429h315l87 429h151l-87 -429h173v-149h-203l-75 -363h278v-149h-308l-87 -426h-150l86 426h-314l-87 -426h-150zM370 550h314l75 363h-315z" />
    <glyph glyph-name="dollar" unicode="$" 
d="M510 -211l0.00195312 180.001c-89.333 10.667 -162 30.5 -218 59.5s-105.333 76.167 -148 141.5c-39.333 62.667 -63 141.667 -71 237l181 34c14 -97.333 38.667 -168.333 74 -213c49.333 -63.333 110 -99 182 -107v573c-74.667 14 -150.334 42.667 -227.001 86
c-56.667 32 -100.667 76.5 -132 133.5s-47 121.167 -47 192.5c0 127.333 45.333 231 136 311c59.333 52 149.333 84.667 270 98v86h106v-86c104.667 -10 187.667 -40.667 249 -92c78 -64.667 125.333 -154.334 142 -269.001l-186 -28
c-10 70.667 -31.833 124.834 -65.5 162.501s-80.167 62.5 -139.5 74.5v-519c93.333 -22.667 153.333 -40.334 180 -53.001c54.667 -23.333 100 -52.833 136 -88.5s63.5 -78 82.5 -127s28.5 -101.833 28.5 -158.5c0 -124.667 -39.667 -228.667 -119 -312
c-40.667 -42.667 -86.834 -75.667 -138.501 -99s-108.167 -35 -169.5 -35v-182h-106zM510.002 1365c-69.333 -10 -124.333 -37.8311 -165 -83.498s-61 -99.5 -61 -161.5c0 -60.667 17 -111.834 51 -153.501s92.333 -74.834 175 -99.501v498zM616.002 121.003
c69.333 8 127 38.168 173 90.501s69 116.833 69 193.5c0 65.333 -16 117.666 -48 156.999s-96.667 75 -194 107v-548z" />
    <glyph glyph-name="percent" unicode="%" horiz-adv-x="1821" 
d="M119 1114c0 104.667 26.167 193.667 78.5 267s128.833 110 229.5 110c92 0 168.167 -33 228.5 -99s90.5 -162.333 90.5 -289c0 -124 -30.5 -219.5 -91.5 -286.5s-136.167 -100.5 -225.5 -100.5c-88 0 -161.667 33.167 -221 99.5s-89 165.833 -89 298.5zM432 1367
c-44 0 -81 -19.332 -111 -57.999s-45 -109.667 -45 -213c0 -93.333 15 -159.333 45 -198s67 -58 111 -58c44.667 0 82 19.167 112 57.5s45 109.166 45 212.499c0 93.333 -15.167 159.5 -45.5 198.5s-67.5 58.5 -111.5 58.5zM433 -53.999l802 1545h146l-799 -1545h-149z
M1067 344.001c0 105.333 26.168 194.5 78.501 267.5s129.166 109.5 230.499 109.5c92 0 168.167 -33 228.5 -99s90.5 -162.333 90.5 -289c0 -124 -30.667 -219.667 -92 -287c-30.667 -33.333 -64.5 -58.333 -101.5 -75s-78.5 -25 -124.5 -25
c-88 0 -161.667 33.167 -221 99.5s-89 165.833 -89 298.5zM1381 597.001c-44.667 0 -81.999 -19.332 -111.999 -57.999s-45 -109.667 -45 -213c0 -92.667 15.167 -158.5 45.5 -197.5s67.166 -58.5 110.499 -58.5c45.333 0 83 19.167 113 57.5s45 109.166 45 212.499
c0 93.333 -15.167 159.5 -45.5 198.5s-67.5 58.5 -111.5 58.5z" />
    <glyph glyph-name="ampersand" unicode="&#x26;" horiz-adv-x="1366" 
d="M973 173c-58.667 -65.333 -123.497 -114.666 -194.497 -147.999s-146.5 -50 -226.5 -50c-150.667 0 -269.667 50.667 -357 152c-71.333 82.667 -107 175 -107 277c0 89.333 29 170.666 87 243.999s145.333 138 262 194c-66.667 76.667 -110.834 138.5 -132.501 185.5
s-32.5 92.5 -32.5 136.5c0 88 34.5 164.5 103.5 229.5s155.833 97.5 260.5 97.5c100 0 181.833 -30.667 245.5 -92s95.5 -135 95.5 -221c0 -139.333 -92.333 -258.333 -277 -357l263 -335c29.333 56.667 52.666 124.667 69.999 204l187 -40
c-32 -128 -75.333 -233.333 -130 -316c67.333 -89.333 143.666 -164.333 228.999 -225l-121 -143c-72 46 -147 115 -225 207zM607.003 937c78 46 128.5 86.332 151.5 120.999s34.5 73 34.5 115c0 49.333 -15.833 90 -47.5 122s-71.167 48 -118.5 48
c-48 0 -88.333 -15.667 -121 -47s-49 -69.666 -49 -114.999c0 -23.333 6 -47.5 18 -72.5s29.333 -51.167 52 -78.5zM860.003 314.999l-330 409c-96 -57.333 -161.333 -111 -196 -161s-52 -99.333 -52 -148c0 -59.333 23.667 -121 71 -185s114.333 -96 201 -96
c54.667 0 110.667 16.833 168 50.5s103.333 77.167 138 130.5z" />
    <glyph glyph-name="quotesingle" unicode="'" horiz-adv-x="391" 
d="M136 947l-46 274v245h205v-245l-48 -274h-111z" />
    <glyph glyph-name="parenleft" unicode="(" horiz-adv-x="682" 
d="M479 -431c-99.333 126 -183.334 273.167 -252.001 441.5s-103 341.833 -103 520.5c0 160 25.667 312 77 456c60.667 170 153.334 338 278.001 504h129c-78.667 -135.333 -132 -234.333 -160 -297c-40 -92 -72 -188 -96 -288c-14 -62.667 -24.667 -125 -32 -187
s-11 -125 -11 -189c0 -320.667 99.667 -641 299 -961h-129z" />
    <glyph glyph-name="parenright" unicode=")" horiz-adv-x="682" 
d="M204 -431l-128.999 0.000976562c199.333 320.667 299 641 299 961c0 126 -14.333 250.333 -43 373c-10.667 50 -23.834 99 -39.501 147s-34.167 95 -55.5 141c-28 64.667 -81.667 164.667 -161 300h129c124 -165.333 216.667 -333.333 278 -504
c51.333 -146 77 -298 77 -456c0 -181.333 -34.333 -355.833 -103 -523.5s-152.667 -313.834 -252 -438.501z" />
    <glyph glyph-name="asterisk" unicode="*" horiz-adv-x="797" 
d="M64 1197l46.001 141.999c107.333 -37.333 184.333 -69.666 231 -96.999l-13 131.5c-4.66699 48.333 -7 87.5 -7 117.5h145c0 -32.667 -1.83301 -67.834 -5.5 -105.501s-9.5 -85.167 -17.5 -142.5c32.667 16 69.334 32.333 110.001 49s82.667 32.334 126 47.001l46 -142
c-80.667 -26.667 -163.667 -45.334 -249 -56.001c38.667 -34 96 -97 172 -189l-120 -85c-36.667 50 -82.334 121.667 -137.001 215c-48.667 -93.333 -92 -165 -130 -215l-118 85c78 96 133.333 159 166 189c-90.667 16.667 -172.334 35.334 -245.001 56.001z" />
    <glyph glyph-name="plus" unicode="+" horiz-adv-x="1196" 
d="M513 237v402h-399v168h399v399h170v-399h399v-168h-399v-402h-170z" />
    <glyph glyph-name="comma" unicode="," horiz-adv-x="569" 
d="M182 0v205.001h205v-205c0 -74.667 -13.167 -135.167 -39.5 -181.5s-68.833 -82.5 -127.5 -108.5l-50 77c38.667 16 66.667 40.667 84 74c10 17.333 17.5 37.166 22.5 59.499s7.5 48.833 7.5 79.5h-102z" />
    <glyph glyph-name="hyphen" unicode="-" horiz-adv-x="682" 
d="M65 440v181h553v-181h-553z" />
    <glyph glyph-name="period" unicode="." horiz-adv-x="569" 
d="M186 0v205h205v-205h-205z" />
    <glyph glyph-name="slash" unicode="/" horiz-adv-x="569" 
d="M0 -25l425 1516h144l-424 -1516h-145z" />
    <glyph glyph-name="zero" unicode="0" 
d="M85 723c0 86 4.33398 163.999 13.001 233.999s22 131.333 40 184c36 105.333 89.167 186.833 159.5 244.5s158.833 86.5 265.5 86.5c78 0 146.833 -15.833 206.5 -47.5s108.667 -77.167 147 -136.5s68.666 -132 90.999 -218s33.5 -201.667 33.5 -347
c0 -174 -17.5 -313 -52.5 -417s-88 -185.167 -159 -243.5s-159.833 -87.5 -266.5 -87.5c-141.333 0 -252.333 50.667 -333 152c-96.667 122.667 -145 321.334 -145 596.001zM270.001 722.999c0 -239.333 28 -399.165 84 -479.498s125.667 -120.5 209 -120.5
c81.333 0 150.5 40.167 207.5 120.5s85.5 240.166 85.5 479.499c0 241.333 -28.167 401.666 -84.5 480.999s-126.5 119 -210.5 119c-82 0 -148 -35 -198 -105c-62 -89.333 -93 -254.333 -93 -495z" />
    <glyph glyph-name="one" unicode="1" 
d="M763 0h-180v1147c-42 -40 -98.5 -80.833 -169.5 -122.5s-134.5 -73.167 -190.5 -94.5v174c100.667 47.333 188.5 104.5 263.5 171.5s128.5 132.5 160.5 196.5h116v-1472z" />
    <glyph glyph-name="two" unicode="2" 
d="M1031 173l-0.00292969 -173.005h-969c0 25.333 1.33301 46.833 4 64.5s8.33398 37.834 17.001 60.501c24 66.667 63.5 132.334 118.5 197.001s133.5 138 235.5 220c158 129.333 265.333 232.333 322 309s85 149.334 85 218.001c0 71.333 -25.5 131.5 -76.5 180.5
s-117.5 73.5 -199.5 73.5c-85.333 0 -154.5 -26.167 -207.5 -78.5s-79.5 -124.166 -79.5 -215.499l-185 19c12 138.667 59.5 244 142.5 316s194.167 108 333.5 108s250.333 -39 333 -117s124 -174.667 124 -290c0 -57.333 -11.833 -114.166 -35.5 -170.499
s-63.667 -116.5 -120 -180.5s-148.833 -150.333 -277.5 -259c-109.333 -90.667 -178.666 -152 -207.999 -184s-54.666 -64.667 -75.999 -98h719z" />
    <glyph glyph-name="three" unicode="3" 
d="M86 387l180.004 23.998c20 -101.333 55.167 -174.666 105.5 -219.999s110.833 -68 181.5 -68c84 0 155.333 29.333 214 88s88 131.334 88 218.001c0 82 -27 150 -81 204s-122.667 81 -206 81c-36 0 -78.333 -6.66699 -127 -20l20 158l29 -2c76 0 144.833 20 206.5 60
s92.5 101.667 92.5 185c0 65.333 -22.333 119.833 -67 163.5s-102.334 65.5 -173.001 65.5c-69.333 0 -127.333 -22 -174 -66s-77 -110 -91 -198l-180 32c22 119.333 72.167 212.5 150.5 279.5s175.166 100.5 290.499 100.5c80 0 153.667 -17.167 221 -51.5
s118.833 -81.166 154.5 -140.499s53.5 -122.333 53.5 -189c0 -62 -17 -119.333 -51 -172s-84.333 -94.334 -151 -125.001c86 -20 153.167 -61.333 201.5 -124s72.5 -141.667 72.5 -237c0 -128 -46.833 -236.5 -140.5 -325.5s-211.5 -133.5 -353.5 -133.5
c-128.667 0 -235.334 38.167 -320.001 114.5s-133.334 175.833 -146.001 298.5z" />
    <glyph glyph-name="four" unicode="4" 
d="M662 0v351h-636v165l669 950h147v-950h198v-165h-198v-351h-180zM662 516v661l-459 -661h459z" />
    <glyph glyph-name="five" unicode="5" 
d="M85 384l189 16c14 -92 46.5 -161.167 97.5 -207.5s112.5 -69.5 184.5 -69.5c86 0 159.167 32.667 219.5 98s90.5 152 90.5 260c0 102 -28.833 182.833 -86.5 242.5s-133.167 89.5 -226.5 89.5c-58 0 -109.833 -13 -155.5 -39s-82.834 -60.333 -111.501 -103l-169 22
l142 753h729v-172h-585l-79 -394c88.667 61.333 181 92 277 92c128 0 236 -44.167 324 -132.5s132 -202.5 132 -342.5c0 -132 -38.667 -246.667 -116 -344c-94.667 -118.667 -223 -178 -385 -178c-133.333 0 -242.166 37.167 -326.499 111.5s-132.5 173.5 -144.5 297.5z" />
    <glyph glyph-name="six" unicode="6" 
d="M1019 1107l-178.999 -13.998c-16 70.667 -38.667 122 -68 154c-48 51.333 -108 77 -180 77c-56.667 0 -107 -16 -151 -48c-55.333 -40.667 -100 -101 -134 -181c-16 -38.667 -28.5 -87.334 -37.5 -146.001s-13.5 -123 -13.5 -193c43.333 66 96.166 115 158.499 147
s128.166 48 197.499 48c120 0 222.167 -44.333 306.5 -133s126.5 -202.667 126.5 -342c0 -91.333 -19.667 -176.5 -59 -255.5s-93.833 -139.667 -163.5 -182s-148.5 -63.5 -236.5 -63.5c-149.333 0 -271.5 55.167 -366.5 165.5s-142.5 292.166 -142.5 545.499
c0 283.333 52.333 489.333 157 618c91.333 112 214.333 168 369 168c115.333 0 209.833 -32.167 283.5 -96.5s117.834 -153.833 132.501 -268.5zM284.001 475.002c0 -61.333 12.999 -120.169 38.999 -176.502s62.833 -99.666 110.5 -129.999s97.5 -45.5 149.5 -45.5
c76 0 141.333 30.833 196 92.5s82 144.834 82 249.501c0 100 -27.167 179.5 -81.5 238.5s-122.166 88.5 -203.499 88.5s-150.333 -29.333 -207 -88s-85 -135 -85 -229z" />
    <glyph glyph-name="seven" unicode="7" 
d="M97 1274l0.000976562 173h949v-140c-91.333 -97.333 -184 -229.333 -278 -396c-90 -162 -160.667 -331.333 -212 -508c-21.333 -72 -37.333 -136 -48 -192c-14 -73.333 -21 -143.666 -21 -210.999h-185c0 110 22.667 249.333 68 418
c42.667 162.667 104.667 320.167 186 472.5s167.666 280.166 258.999 383.499h-718z" />
    <glyph glyph-name="eight" unicode="8" 
d="M362 795c-73.333 26.667 -128.334 65.3359 -165.001 116.003s-55 111.667 -55 183c0 105.333 38.333 194.666 115 267.999s178.667 110 306 110c128.667 0 231.834 -37.167 309.501 -111.5s116.5 -164.833 116.5 -271.5c0 -67.333 -17.667 -126.166 -53 -176.499
s-89.666 -89.5 -162.999 -117.5c90 -28.667 158.5 -75.834 205.5 -141.501s70.5 -143.834 70.5 -234.501c0 -124.667 -44.333 -229.834 -133 -315.501s-205.334 -128.5 -350.001 -128.5c-144 0 -260.5 43 -349.5 129s-133.5 192.667 -133.5 320c0 94 24 173.333 72 238
s117 109 207 133zM325.999 1100c0 -68.667 22.168 -125.166 66.501 -169.499s102.5 -66.5 174.5 -66.5c69.333 0 126.166 22 170.499 66s66.5 97.333 66.5 160c0 65.333 -22.833 120.666 -68.5 165.999s-102.5 68 -170.5 68s-124.833 -22 -170.5 -66
s-68.5 -96.667 -68.5 -158zM268 423.003c0 -50 11.999 -99.332 35.999 -147.999s60.167 -86.167 108.5 -112.5s100.166 -39.5 155.499 -39.5c86.667 0 157.834 27.667 213.501 83s83.5 125.666 83.5 210.999s-29 156.666 -87 213.999s-130 86 -216 86
c-83.333 0 -153.166 -28.167 -209.499 -84.5s-84.5 -126.166 -84.5 -209.499z" />
    <glyph glyph-name="nine" unicode="9" 
d="M112 339l173 15.998c14 -80.667 42 -139.5 84 -176.5s95 -55.5 159 -55.5c56 0 104.667 12.667 146 38s75 58.833 101 100.5s48.333 98.834 67 171.501s28 146.334 28 221.001l-1 36c-35.333 -56 -84.5 -102.167 -147.5 -138.5s-130.5 -54.5 -202.5 -54.5
c-120 0 -222.333 44 -307 132s-127 204 -127 348c0 148 44 267.5 132 358.5s197.667 136.5 329 136.5c47.333 0 92.833 -6.33301 136.5 -19s85.167 -32 124.5 -58c79.333 -51.333 139.5 -124.5 180.5 -219.5s61.5 -232.5 61.5 -412.5
c0 -187.333 -20.167 -336.333 -60.5 -447s-100.833 -195.167 -181.5 -253.5s-175 -87.5 -283 -87.5c-114 0 -207.167 31.667 -279.5 95s-116.5 153 -132.5 269zM849 985.998c0 104 -27.5 186.168 -82.5 246.501s-121.167 90.5 -198.5 90.5c-80 0 -149.667 -32.667 -209 -98
s-89 -150 -89 -254c0 -92.667 28 -168.334 84 -227.001s125.667 -88 209 -88c82.667 0 151 29 205 87s81 139 81 243z" />
    <glyph glyph-name="colon" unicode=":" horiz-adv-x="569" 
d="M185 857v205h205v-205h-205zM185 0v205h205v-205h-205z" />
    <glyph glyph-name="semicolon" unicode=";" horiz-adv-x="569" 
d="M182 857v205h205v-205h-205zM182 0v205.001h205v-205c0 -74.667 -13.167 -135.167 -39.5 -181.5s-68.833 -82.5 -127.5 -108.5l-50 77c38.667 16 66.667 40.667 84 74c10 17.333 17.5 37.166 22.5 59.499s7.5 48.833 7.5 79.5h-102z" />
    <glyph glyph-name="less" unicode="&#x3c;" horiz-adv-x="1196" 
d="M112 641v168l971 410v-179l-770 -316l770 -319v-179z" />
    <glyph glyph-name="equal" unicode="=" horiz-adv-x="1196" 
d="M1082 862h-968v168h968v-168zM1082 417h-968v168h968v-168z" />
    <glyph glyph-name="greater" unicode="&#x3e;" horiz-adv-x="1196" 
d="M1083 641l-971 -415v179l769 319l-769 316v179l971 -410v-168z" />
    <glyph glyph-name="question" unicode="?" 
d="M472 361l-1.00195 54.001c0 70 10 131 30 183c6.66699 18 16.167 37.333 28.5 58s26.5 40.334 42.5 59.001c21.333 25.333 64.333 67 129 125c60.667 54 100.834 97.833 120.501 131.5s29.5 69.5 29.5 107.5c0 70 -27.333 131.5 -82 184.5s-121.667 79.5 -201 79.5
c-76 0 -139.5 -23.833 -190.5 -71.5s-85.167 -122.834 -102.5 -225.501l-185 22c16 135.333 65.333 239.666 148 312.999s191.667 110 327 110c142.667 0 256.834 -39 342.501 -117s128.5 -172.333 128.5 -283c0 -64 -15 -123 -45 -177s-88.667 -119.667 -176 -197
c-58 -52 -96 -90 -114 -114s-31.667 -52.667 -41 -86c-4 -14.667 -7.5 -36.5 -10.5 -65.5s-4.5 -59.167 -4.5 -90.5h-173zM460.998 0.000976562v205h205v-205h-205z" />
    <glyph glyph-name="at" unicode="@" horiz-adv-x="2079" 
d="M1161 163c-43.333 -50 -91.834 -90.165 -145.501 -120.498s-107.5 -45.5 -161.5 -45.5c-58.667 0 -116 17 -172 51s-101.667 87.667 -137 161s-53 152.333 -53 237c0 106 27.167 212.167 81.5 318.5s121.833 186.166 202.5 239.499s159 80 235 80
c58 0 113 -15.167 165 -45.5s97.667 -76.5 137 -138.5l34 155h179l-144 -671c-20 -93.333 -30 -145 -30 -155c0 -18 6.66699 -33.667 20 -47c14.667 -12.667 31.334 -19 50.001 -19c35.333 0 81.666 20.333 138.999 61c76 53.333 136.167 125.166 180.5 215.499
s66.5 182.5 66.5 276.5c0 112 -28.333 215.833 -85 311.5s-141.5 172.834 -254.5 231.501s-238.167 88 -375.5 88c-156.667 0 -299.334 -36.333 -428.001 -109s-228.5 -177.667 -299.5 -315s-106.5 -283.333 -106.5 -438c0 -162.667 35.5 -303.334 106.5 -422.001
s173.833 -206 308.5 -262s283.334 -84 446.001 -84c174.667 0 321 29.167 439 87.5s206.333 129.833 265 214.5h181c-34 -70 -92 -141 -174 -213s-180.667 -129.667 -296 -173c-58 -21.333 -120.667 -37.333 -188 -48s-142 -16 -224 -16c-147.333 0 -283.5 19 -408.5 57
s-231.667 95.167 -320 171.5s-154.833 164.166 -199.5 263.499c-56 126 -84 262 -84 408c0 162.667 33.333 317.667 100 465c80.667 180 196 318.167 346 414.5s331.667 144.5 545 144.5c164.667 0 313.167 -33.833 445.5 -101.5s236.166 -168.5 311.499 -302.5
c64.667 -116 97 -241.333 97 -376c0 -192 -68 -363.667 -204 -515c-121.333 -134.667 -254 -202 -398 -202c-45.333 0 -82.166 6.83301 -110.499 20.5s-49.5 33.834 -63.5 60.501c-7.33301 15.333 -13.666 44 -18.999 86zM676.999 434.002
c0 -92 21.667 -163.168 65 -213.501s93 -75.5 149 -75.5c36.667 0 75.667 11 117 33s81.166 55.333 119.499 100s69.333 100.667 93 168s35.5 135 35.5 203c0 46.667 -5.33301 86.834 -16 120.501s-28 63.834 -52 90.501c-44 50 -98.667 75 -164 75
c-41.333 0 -81.166 -10.833 -119.499 -32.5s-75 -56.334 -110 -104.001s-63.5 -106.167 -85.5 -175.5c-10.667 -34 -18.667 -66.5 -24 -97.5s-8 -61.5 -8 -91.5z" />
    <glyph glyph-name="A" unicode="A" horiz-adv-x="1366" 
d="M-3 0l563 1466h209l600 -1466h-221l-171 444h-613l-161 -444h-206zM420 602h497l-153 406c-43.333 115.333 -78 216.666 -104 303.999c-18 -95.333 -44.333 -188.666 -79 -279.999z" />
    <glyph glyph-name="B" unicode="B" horiz-adv-x="1366" 
d="M150 0l0.00292969 1466h550c111.333 0 201.166 -14.833 269.499 -44.5s121.5 -75.5 159.5 -137.5s57 -126.333 57 -193c0 -62 -16.833 -120.5 -50.5 -175.5s-85.167 -100.167 -154.5 -135.5c88 -26 156 -70.167 204 -132.5s72 -136.5 72 -222.5
c0 -69.333 -14.333 -133.166 -43 -191.499s-64.334 -103.666 -107.001 -135.999s-96.334 -56.666 -161.001 -72.999s-143.667 -24.5 -237 -24.5h-559zM344.003 849.997l317 -0.00195312c87.333 0 149 5.66699 185 17c49.333 14 86.333 38.333 111 73
c12 16.667 21.333 35.834 28 57.501s10 45.167 10 70.5c0 48.667 -11.5 91.334 -34.5 128.001s-56.333 62 -100 76s-118.167 21 -223.5 21h-293v-443zM344.003 172.995l365 0.000976562c64 0 108 2.33301 132 7c44 8 81 21 111 39s54.833 45.333 74.5 82s29.5 78 29.5 124
c0 53.333 -14 100.166 -42 140.499s-67.333 69 -118 86s-121.667 25.5 -213 25.5h-339v-504z" />
    <glyph glyph-name="C" unicode="C" horiz-adv-x="1479" 
d="M1204 514l193.999 -48.999c-40 -158.667 -113 -280 -219 -364s-235.333 -126 -388 -126c-157.333 0 -285.5 32 -384.5 96s-174.5 157.333 -226.5 280s-78 253.667 -78 393c0 152 29 284.833 87 398.5s141.167 200.167 249.5 259.5s226.833 89 355.5 89
c146 0 269 -37 369 -111s170 -179.333 210 -316l-191 -45c-34 105.333 -83.333 182.666 -148 231.999s-146 74 -244 74c-111.333 0 -205.166 -27 -281.499 -81s-129.833 -126.833 -160.5 -218.5s-46 -185.167 -46 -280.5c0 -124 18 -232.5 54 -325.5
s92.333 -162.667 169 -209s160 -69.5 250 -69.5c108.667 0 200.667 31.167 276 93.5s126.333 155.5 153 279.5z" />
    <glyph glyph-name="D" unicode="D" horiz-adv-x="1479" 
d="M158 0l-0.00195312 1466h505c114 0 201 -7 261 -21c83.333 -18.667 155 -53.667 215 -105c76.667 -64.667 134.334 -148.334 173.001 -251.001s58 -218.667 58 -348c0 -110 -13 -208.333 -39 -295s-59.167 -158.167 -99.5 -214.5s-84.666 -100.5 -132.999 -132.5
s-107.5 -56.5 -177.5 -73.5s-148 -25.5 -234 -25.5h-529zM351.998 173.001h312.999c95.333 0 170.833 9 226.5 27s99.834 43.333 132.501 76c45.333 45.333 81 107 107 185s39 172.333 39 283c0 152.667 -25.167 270 -75.5 352s-111.5 137.667 -183.5 167
c-52 20 -135.667 30 -251 30h-308v-1120z" />
    <glyph glyph-name="E" unicode="E" horiz-adv-x="1366" 
d="M162 0v1466h1060v-173h-866v-449h811v-172h-811v-499h900v-173h-1094z" />
    <glyph glyph-name="F" unicode="F" horiz-adv-x="1251" 
d="M168 0v1466h989v-173h-795v-454h688v-173h-688v-666h-194z" />
    <glyph glyph-name="G" unicode="G" horiz-adv-x="1593" 
d="M844 575l0.00195312 172.002l621 1v-544c-94.667 -75.333 -192.834 -132.333 -294.501 -171s-205.834 -58 -312.501 -58c-145.333 0 -276.166 30.667 -392.499 92s-204.833 150.333 -265.5 267s-91 247.334 -91 392.001c0 143.333 29.833 276.666 89.5 399.999
s145.5 215 257.5 275s241 90 387 90c106 0 201.833 -17.167 287.5 -51.5s152.667 -82 201 -143s85.5 -141.167 111.5 -240.5l-175 -48c-22 73.333 -49.167 131.666 -81.5 174.999s-78.833 77.833 -139.5 103.5s-128.334 38.5 -203.001 38.5
c-88.667 0 -165.167 -13.333 -229.5 -40s-116.833 -62.334 -157.5 -107.001c-38 -42.667 -68.667 -91 -92 -145c-37.333 -90.667 -56 -189 -56 -295c0 -130 22.333 -239.167 67 -327.5s110.5 -153.833 197.5 -196.5s178.167 -64 273.5 -64c84 0 166 16 246 48
s140.667 66.667 182 104v273h-431z" />
    <glyph glyph-name="H" unicode="H" horiz-adv-x="1479" 
d="M161 0v1466h194v-602h762v602h194v-1466h-194v691h-762v-691h-194z" />
    <glyph glyph-name="I" unicode="I" horiz-adv-x="569" 
d="M191 0v1466h194v-1466h-194z" />
    <glyph glyph-name="J" unicode="J" horiz-adv-x="1024" 
d="M59 416l174.998 23.999c0 -54.667 5.5 -101.167 16.5 -139.5s26.5 -68.5 46.5 -90.5c37.333 -41.333 89 -62 155 -62c48 0 89.667 11 125 33s60 52.333 74 91c6.66699 19.333 11.667 43.833 15 73.5s5 66.5 5 110.5v1010h194v-999c0 -122 -14.667 -216.667 -44 -284
s-76.666 -119 -141.999 -155c-32.667 -18 -67.167 -31.333 -103.5 -40s-77.166 -13 -122.499 -13c-127.333 0 -226 37 -296 111c-33.333 36 -58 81.833 -74 137.5s-24 119.834 -24 192.501z" />
    <glyph glyph-name="K" unicode="K" horiz-adv-x="1366" 
d="M150 0v1466h194v-727l728 727h263l-615 -594l642 -872h-256l-522 742l-240 -234v-508h-194z" />
    <glyph glyph-name="L" unicode="L" 
d="M150 0v1466h194v-1293h722v-173h-916z" />
    <glyph glyph-name="M" unicode="M" horiz-adv-x="1706" 
d="M152 0v1466h292l347 -1038l70 -217c15.333 50.667 41.333 129 78 235l351 1020h261v-1466h-187v1227l-426 -1227h-175l-424 1248v-1248h-187z" />
    <glyph glyph-name="N" unicode="N" horiz-adv-x="1479" 
d="M156 0v1466h199l770 -1151v1151h186v-1466h-199l-770 1152v-1152h-186z" />
    <glyph glyph-name="O" unicode="O" horiz-adv-x="1593" 
d="M99 714c0 243.333 65.168 433.832 195.501 571.499s299.166 206.5 506.499 206.5c135.333 0 257 -32 365 -96s190.833 -154.333 248.5 -271s86.5 -248 86.5 -394c0 -148 -30 -280.667 -90 -398s-145 -206.333 -255 -267s-228.667 -91 -356 -91
c-138 0 -261 33.167 -369 99.5s-190.333 157.333 -247 273s-85 237.834 -85 366.501zM299.001 710.999c0 -176 47.501 -315.001 142.501 -417.001s214.167 -153 357.5 -153c146 0 266.167 51.333 360.5 154s141.5 248.334 141.5 437.001c0 120 -20.167 224.333 -60.5 313
s-99.333 157.5 -177 206.5s-164.834 73.5 -261.501 73.5c-137.333 0 -255.5 -47.333 -354.5 -142s-148.5 -252 -148.5 -472z" />
    <glyph glyph-name="P" unicode="P" horiz-adv-x="1366" 
d="M158 0v1466h553c50.667 0 93.667 -1 129 -3s66.666 -5.66699 93.999 -11c71.333 -12 131.333 -34.667 180 -68s88 -80.333 118 -141s45 -127.667 45 -201c0 -124 -39.667 -229.333 -119 -316s-222.666 -130 -429.999 -130h-376v-596h-194zM352 769l379 -0.000976562
c125.333 0 214.333 23.333 267 70s79 112.334 79 197.001c0 61.333 -15.333 113.833 -46 157.5s-71.667 72.5 -123 86.5c-34.667 8.66699 -95 13 -181 13h-375v-524z" />
    <glyph glyph-name="Q" unicode="Q" horiz-adv-x="1593" 
d="M1269 157c88.667 -61.333 171.667 -106.667 249 -136l-57 -135c-105.333 38 -210.333 98 -315 180c-109.333 -60.667 -229.333 -91 -360 -91c-131.333 0 -251.166 32 -359.499 96s-191.833 154 -250.5 270s-88 246.667 -88 392c0 144 29.167 275.333 87.5 394
s141.666 209.167 249.999 271.5s229.833 93.5 364.5 93.5c135.333 0 257 -32 365 -96s190.833 -154.167 248.5 -270.5s86.5 -246.833 86.5 -391.5c0 -120 -18.167 -228.167 -54.5 -324.5s-91.833 -180.5 -166.5 -252.5zM842 404.999c112.667 -31.333 205 -78 277 -140
c114 104 171 260.333 171 469c0 118 -20 221.167 -60 309.5s-99 157.333 -177 207s-165.333 74.5 -262 74.5c-144.667 0 -264.667 -49.5 -360 -148.5s-143 -246.833 -143 -443.5c0 -189.333 47 -335.333 141 -438s214.667 -154 362 -154c68.667 0 134 13 196 39
c-60 39.333 -124 67.333 -192 84z" />
    <glyph glyph-name="R" unicode="R" horiz-adv-x="1479" 
d="M161 0l-0.00195312 1466h650c130.667 0 230 -13.167 298 -39.5s122.333 -73 163 -140s61 -140.5 61 -220.5c0 -104 -33.5 -191.5 -100.5 -262.5s-171.167 -116.5 -312.5 -136.5c52 -24.667 91 -49 117 -73c54 -50.667 107.667 -115.667 161 -195l255 -399h-244l-194 305
c-57.333 90 -103.666 157.333 -138.999 202s-68.666 77.334 -99.999 98.001c-28 18 -57.333 31 -88 39c-11.333 2 -25.833 3.66699 -43.5 5s-39.167 2 -64.5 2h-225v-651h-194zM354.998 818.999h417c87.333 0 156.333 9 207 27s89 47.167 115 87.5s39 84.5 39 132.5
c0 69.333 -25.333 126.333 -76 171s-130 67 -238 67h-464v-485z" />
    <glyph glyph-name="S" unicode="S" horiz-adv-x="1366" 
d="M92 471l183 16c8 -72.667 28 -132.5 60 -179.5s81.333 -85.5 148 -115.5c33.333 -14 68.5 -24.667 105.5 -32s76.833 -11 119.5 -11c73.333 0 138.333 11 195 33s99 52 127 90s42 80 42 126c0 46.667 -13.167 86.834 -39.5 120.501s-70.5 62.5 -132.5 86.5
c-34 13.333 -119.833 36.666 -257.5 69.999s-233.167 64.333 -286.5 93c-70 36 -122.167 81.167 -156.5 135.5s-51.5 115.5 -51.5 183.5c0 74 21 143 63 207s103.333 112.833 184 146.5s170.334 50.5 269.001 50.5c108.667 0 204.5 -17.333 287.5 -52
s146.833 -86.334 191.5 -155.001c22.667 -35.333 40.334 -72.5 53.001 -111.5s19 -78.833 19 -119.5l-186 -14c-10 92 -43.833 161.833 -101.5 209.5s-142.834 71.5 -255.501 71.5c-117.333 0 -202.833 -21.333 -256.5 -64s-80.5 -94.667 -80.5 -156
c0 -51.333 18.833 -94.333 56.5 -129s135.167 -69.667 292.5 -105s265.666 -66.666 324.999 -93.999c85.333 -39.333 148.333 -89.333 189 -150c20 -29.333 35.167 -61.5 45.5 -96.5s15.5 -72.167 15.5 -111.5c0 -78 -22 -151.167 -66 -219.5s-108.167 -122 -192.5 -161
s-178.833 -58.5 -283.5 -58.5c-132.667 0 -243.667 19.167 -333 57.5s-160 96.5 -212 174.5c-26 40.667 -45.833 82.667 -59.5 126s-20.5 89.333 -20.5 138z" />
    <glyph glyph-name="T" unicode="T" horiz-adv-x="1251" 
d="M531 0v1293h-483v173h1162v-173h-485v-1293h-194z" />
    <glyph glyph-name="U" unicode="U" horiz-adv-x="1479" 
d="M1120 1466l194.001 0.00390625v-847c0 -148.667 -16.5 -265.667 -49.5 -351s-93 -155.5 -180 -210.5s-201.5 -82.5 -343.5 -82.5c-138 0 -250.333 23.5 -337 70.5s-149 115.5 -187 205.5c-18.667 45.333 -32.667 98.166 -42 158.499s-14 130.166 -14 209.499v847h194
v-846c0 -128.667 11.833 -222.834 35.5 -282.501s64.667 -105.834 123 -138.501s128.5 -49 210.5 -49c141.333 0 242.666 32.333 303.999 97s92 189 92 373v846z" />
    <glyph glyph-name="V" unicode="V" horiz-adv-x="1366" 
d="M577 0l-568 1466h210l381 -1065c18.667 -52.667 35.667 -103.667 51 -153c5.33301 -16.667 14 -45.667 26 -87c22.667 82.667 49 162.667 79 240l396 1065h198l-574 -1466h-199z" />
    <glyph glyph-name="W" unicode="W" horiz-adv-x="1933" 
d="M414 0l-389.001 1466h199l223 -961c9.33301 -40 20.333 -90 33 -150c10.667 -50 20.334 -100 29.001 -150l66 271l279 990h234l210 -742c52 -184 90 -357 114 -519c18.667 96 43 202.333 73 319l230 942h195l-402 -1466h-187l-309 1117l-46 172
c-16 -70.667 -30.333 -128 -43 -172l-311 -1117h-198z" />
    <glyph glyph-name="X" unicode="X" horiz-adv-x="1366" 
d="M9 0l566.999 764l-500 702h231l266 -376c53.333 -75.333 92.666 -135.333 117.999 -180c32.667 54 71.334 109.667 116.001 167l295 389h211l-515 -691l555 -775h-240l-369 523l-64 98c-31.333 -52 -54.666 -88.667 -69.999 -110l-368 -511h-233z" />
    <glyph glyph-name="Y" unicode="Y" horiz-adv-x="1366" 
d="M571 0l-0.000976562 621.002l-565 845h236l289 -442c50.667 -78.667 100.334 -161.334 149.001 -248.001c44.667 77.333 98 163.666 160 258.999l284 431h226l-585 -845v-621h-194z" />
    <glyph glyph-name="Z" unicode="Z" horiz-adv-x="1251" 
d="M41 0v180l751 939c56 70 106.667 128 152 174h-818v173h1050v-173l-823 -1017l-89 -103h936v-173h-1159z" />
    <glyph glyph-name="bracketleft" unicode="[" horiz-adv-x="569" 
d="M139 -407v1873h397v-149h-217v-1575h217v-149h-397z" />
    <glyph glyph-name="backslash" unicode="\" horiz-adv-x="569" 
d="M425 -25l-425 1516h145l424 -1516h-144z" />
    <glyph glyph-name="bracketright" unicode="]" horiz-adv-x="569" 
d="M436 -407h-397v149h217v1575h-217v149h397v-1873z" />
    <glyph glyph-name="asciicircum" unicode="^" horiz-adv-x="961" 
d="M239 690h-185l353 801h145l355 -801h-181l-247 597z" />
    <glyph glyph-name="underscore" unicode="_" 
d="M-31 -407v130h1193v-130h-1193z" />
    <glyph glyph-name="grave" unicode="`" horiz-adv-x="682" 
d="M465 1194h-145l-231 280h241z" />
    <glyph glyph-name="a" unicode="a" 
d="M828 131c-66 -56 -130.168 -95.833 -192.501 -119.5s-128.5 -35.5 -198.5 -35.5c-116 0 -205.5 28.5 -268.5 85.5s-94.5 129.833 -94.5 218.5c0 52.667 11.667 100 35 142s53.833 76.167 91.5 102.5s81.5 46.5 131.5 60.5c35.333 9.33301 89 18.333 161 27
s134.667 18 188 28s97.333 21.333 132 34l1 47c0 72 -17 123.667 -51 155c-46.667 40.667 -115 61 -205 61c-83.333 0 -145.333 -14.667 -186 -44s-71 -82 -91 -158l-176 24c16 74.667 42 135 78 181s89.167 81.833 159.5 107.5s150.833 38.5 241.5 38.5
c91.333 0 164.833 -10.5 220.5 -31.5s97.5 -48.167 125.5 -81.5c25.333 -31.333 44 -72 56 -122c6 -30 9 -85.333 9 -166v-240c0 -170.667 3.83301 -277.5 11.5 -320.5s22.834 -84.5 45.501 -124.5h-188c-18 37.333 -30 81 -36 131zM812.999 533
c-30.667 -12 -70.8311 -23.834 -120.498 -35.501s-109.334 -22.5 -179.001 -32.5s-119.834 -21.667 -150.501 -35s-54.5 -33.166 -71.5 -59.499s-25.5 -54.833 -25.5 -85.5c0 -48 18 -88 54 -120s89.333 -48 160 -48c68 0 129.167 15 183.5 45s94.5 71.667 120.5 125
c19.333 40.667 29 100.667 29 180v66z" />
    <glyph glyph-name="b" unicode="b" 
d="M301 0h-167.001v1466h180v-523c76 95.333 173 143 291 143c65.333 0 127 -13.167 185 -39.5s105.833 -63 143.5 -110s67.334 -104.667 89.001 -173s32.5 -140.5 32.5 -216.5c0 -181.333 -45 -321.833 -135 -421.5s-198 -149.5 -324 -149.5
c-124.667 0 -223 52.333 -295 157v-133zM298.999 539c0 -127.333 17.332 -219.331 51.999 -275.998c56.667 -92.667 133.334 -139 230.001 -139c78 0 145.833 34.167 203.5 102.5s86.5 170.166 86.5 305.499c0 70 -6.66699 130.167 -20 180.5s-34.333 92.5 -63 126.5
c-54 66 -120.333 99 -199 99c-78 0 -145.833 -34.333 -203.5 -103s-86.5 -167.334 -86.5 -296.001z" />
    <glyph glyph-name="c" unicode="c" horiz-adv-x="1024" 
d="M828 389l176.999 -23.001c-18.667 -122 -68.167 -217.5 -148.5 -286.5s-178.166 -103.5 -293.499 -103.5c-145.333 0 -262.166 47.5 -350.499 142.5s-132.5 231.167 -132.5 408.5c0 113.333 19 213.333 57 300s96 151.5 174 194.5s162.333 64.5 253 64.5
c115.333 0 209.666 -29.167 282.999 -87.5s120.333 -141.166 141 -248.499l-175 -27c-16 70.667 -45.333 124.167 -88 160.5s-94 54.5 -154 54.5c-90 0 -163.5 -32.5 -220.5 -97.5s-85.5 -167.833 -85.5 -308.5c0 -142 27.333 -245.5 82 -310.5s126 -97.5 214 -97.5
c70.667 0 129.667 21.667 177 65s77.333 110 90 200z" />
    <glyph glyph-name="d" unicode="d" 
d="M824 0v134c-67.333 -105.333 -166.333 -158 -297 -158c-84.667 0 -162.334 23.167 -233.001 69.5s-125.667 111.833 -165 196.5s-59 180.667 -59 288s17.5 203.5 52.5 288.5s87.833 150.833 158.5 197.5s150 70 238 70c65.333 0 122.333 -13.167 171 -39.5
s89.334 -61.833 122.001 -106.5v526h179v-1466h-167zM255 530c0 -136 28.667 -237.667 86 -305s125 -101 203 -101c77.333 0 143.833 32.167 199.5 96.5s83.5 162.5 83.5 294.5c0 144 -28 250.333 -84 319s-125 103 -207 103c-80.667 0 -147.667 -32.667 -201 -98
s-80 -168.333 -80 -309z" />
    <glyph glyph-name="e" unicode="e" 
d="M862 342l186.002 -23c-28.667 -108 -82.834 -192.167 -162.501 -252.5s-181.167 -90.5 -304.5 -90.5c-155.333 0 -278.5 48 -369.5 144s-136.5 230 -136.5 402c0 177.333 46 316 138 416c46.667 49.333 99.5 86.333 158.5 111s125.5 37 199.5 37
c142 0 258 -48.167 348 -144.5s135 -232.5 135 -408.5l-1 -48h-792c0 -56 8.66699 -106.333 26 -151s41.666 -83.667 72.999 -117c59.333 -62 133.333 -93 222 -93c66 0 122.167 17.167 168.5 51.5s83.5 89.833 111.5 166.5zM271.002 633h593c-8 90 -30.667 157 -68 201
c-57.333 69.333 -131.666 104 -222.999 104c-82 0 -151.667 -27.667 -209 -83c-28.667 -28.667 -51.334 -61.667 -68.001 -99s-25 -78.333 -25 -123z" />
    <glyph glyph-name="f" unicode="f" horiz-adv-x="569" 
d="M178 0v922h-159v140h159v113c0 72 6.33301 125 19 159c16.667 45.333 47.167 82.833 91.5 112.5s105.5 44.5 183.5 44.5c50 0 106 -6 168 -18l-27 -157c-16 2.66699 -33.833 5 -53.5 7s-37.167 3 -52.5 3c-54 0 -92.5 -11.833 -115.5 -35.5s-34.5 -67.167 -34.5 -130.5
v-98h207v-140h-207v-922h-179z" />
    <glyph glyph-name="g" unicode="g" 
d="M102 -88l175 -25.998c6.66699 -54 27 -93.333 61 -118c44.667 -33.333 105.667 -50 183 -50c83.333 0 147.5 16.5 192.5 49.5s75.833 79.833 92.5 140.5c8.66699 34.667 13 111.667 13 231c-78.667 -92.667 -176.667 -139 -294 -139
c-146.667 0 -259.834 52.667 -339.501 158s-119.5 231.666 -119.5 378.999c0 101.333 18.167 194.666 54.5 279.999s89.833 151.5 160.5 198.5s152.334 70.5 245.001 70.5c125.333 0 228.666 -50.667 309.999 -152v128h166v-918c0 -164.667 -16.667 -281.5 -50 -350.5
s-86.5 -123.667 -159.5 -164s-163.167 -60.5 -270.5 -60.5c-63.333 0 -120.333 7 -171 21s-95.667 35.333 -135 64s-68.166 64 -86.499 106s-27.5 92.667 -27.5 152zM251 550.002c0 -139.333 27.6689 -240.999 83.002 -304.999s124.666 -96 207.999 -96
c82 0 151.167 31.833 207.5 95.5s84.5 163.5 84.5 299.5c0 130 -28.833 228 -86.5 294s-127.167 99 -208.5 99c-80.667 0 -148.834 -32.333 -204.501 -97s-83.5 -161.334 -83.5 -290.001z" />
    <glyph glyph-name="h" unicode="h" 
d="M135 0v1466h180v-526c84 97.333 190 146 318 146c78.667 0 147 -15.333 205 -46s99.5 -73.5 124.5 -128.5s37.5 -134.5 37.5 -238.5v-673h-180v673c0 90.667 -19.333 156.334 -58 197.001s-94 61 -166 61c-52.667 0 -102.5 -13.667 -149.5 -41
s-80.667 -64.833 -101 -112.5s-30.5 -113.167 -30.5 -196.5v-581h-180z" />
    <glyph glyph-name="i" unicode="i" horiz-adv-x="455" 
d="M136 1259v207h180v-207h-180zM136 0v1062h180v-1062h-180z" />
    <glyph glyph-name="j" unicode="j" horiz-adv-x="455" 
d="M134 1257v209h180v-209h-180zM-94 -412l34.001 153.001c37.333 -9.33301 65.666 -14 84.999 -14c36 0 63.167 12.167 81.5 36.5s27.5 85.166 27.5 182.499v1116h180v-1120c0 -130 -17 -221 -51 -273c-43.333 -66.667 -115.333 -100 -216 -100
c-49.333 0 -96.333 6.33301 -141 19z" />
    <glyph glyph-name="k" unicode="k" horiz-adv-x="1024" 
d="M136 0v1466h180v-836l426 432h233l-406 -394l447 -668h-222l-351 543l-127 -122v-421h-180z" />
    <glyph glyph-name="l" unicode="l" horiz-adv-x="455" 
d="M131 0v1466h180v-1466h-180z" />
    <glyph glyph-name="m" unicode="m" horiz-adv-x="1706" 
d="M135 0v1062h161v-149c32.667 51.333 76.834 93 132.501 125s118.834 48 189.501 48c78 0 142 -16 192 -48s86 -78 108 -138c84 124 193.333 186 328 186c105.333 0 186.333 -29.333 243 -88s85 -148.334 85 -269.001v-729h-179v669c0 71.333 -5.66699 122.833 -17 154.5
s-32.5 57.334 -63.5 77.001s-67.167 29.5 -108.5 29.5c-74 0 -135.833 -24.833 -185.5 -74.5s-74.5 -129.167 -74.5 -238.5v-617h-180v690c0 80.667 -14.667 140.834 -44 180.501s-77.333 59.5 -144 59.5c-50.667 0 -97.334 -13.167 -140.001 -39.5
s-73.834 -65.5 -93.501 -117.5s-29.5 -126 -29.5 -222v-551h-180z" />
    <glyph glyph-name="n" unicode="n" 
d="M135 0l-0.000976562 1062h162v-151c78.667 116.667 191.334 175 338.001 175c64.667 0 123.5 -11.333 176.5 -34s93.167 -53 120.5 -91c25.333 -36 44 -80.333 56 -133c2.66699 -15.333 5 -38.333 7 -69s3 -66 3 -106v-653h-180v646c0 72 -7 126.333 -21 163
s-38.833 66 -74.5 88s-77.5 33 -125.5 33c-76 0 -142 -24.167 -198 -72.5s-84 -140.833 -84 -277.5v-580h-180z" />
    <glyph glyph-name="o" unicode="o" 
d="M68 531c0 196 54.667 341.668 164 437.001c92 78.667 203.333 118 334 118c145.333 0 264.5 -48 357.5 -144s139.5 -228 139.5 -396c0 -136.667 -20.333 -244 -61 -322s-100.5 -138.833 -179.5 -182.5s-164.5 -65.5 -256.5 -65.5c-148 0 -268 47.667 -360 143
s-138 232.666 -138 411.999zM253 531.001c0 -136.667 29.667 -238.667 89 -306s134 -101 224 -101c88.667 0 162.834 34.167 222.501 102.5s89.5 171.833 89.5 310.5c0 130.667 -29.833 230 -89.5 298s-133.834 102 -222.501 102c-90 0 -164.667 -33.667 -224 -101
s-89 -169 -89 -305z" />
    <glyph glyph-name="p" unicode="p" 
d="M135 -407l0.000976562 1469h164v-138c38 54 81.5 94.5 130.5 121.5s108.167 40.5 177.5 40.5c90.667 0 170.5 -23.167 239.5 -69.5s121.333 -112.166 157 -197.499s53.5 -178.666 53.5 -279.999c0 -109.333 -19.333 -207 -58 -293s-95.334 -152.5 -170.001 -199.5
s-153 -70.5 -235 -70.5c-61.333 0 -115.333 12.667 -162 38s-85.667 57.333 -117 96v-517h-180zM298.001 524.998c0 -136.667 27.667 -237.668 83 -303.001s122.333 -98 201 -98c80 0 148.5 34 205.5 102s85.5 172.667 85.5 314c0 134.667 -27.833 235.834 -83.5 303.501
s-122.167 101.5 -199.5 101.5c-76 0 -143.667 -36 -203 -108s-89 -176 -89 -312z" />
    <glyph glyph-name="q" unicode="q" 
d="M812 -407v520c-27.333 -38 -66.333 -70.333 -117 -97s-104.334 -40 -161.001 -40c-125.333 0 -233.666 50.333 -324.999 151s-137 238.667 -137 414c0 106 18.5 201.5 55.5 286.5s90.5 149.333 160.5 193s147.333 65.5 232 65.5c130.667 0 234 -55.333 310 -166v142h162
v-1469h-180zM257 534c0 -136 28.667 -238.332 86 -306.999s126 -103 206 -103c76 0 141.833 32.5 197.5 97.5s83.5 163.833 83.5 296.5c0 141.333 -29.167 247.666 -87.5 318.999s-126.833 107 -205.5 107c-78 0 -144.167 -33.167 -198.5 -99.5s-81.5 -169.833 -81.5 -310.5
z" />
    <glyph glyph-name="r" unicode="r" horiz-adv-x="682" 
d="M133 0v1062h162v-161c40.667 74 78.667 123.333 114 148s74 37 116 37c60 0 121.667 -19.333 185 -58l-62 -167c-44 26 -88 39 -132 39c-38.667 0 -73.667 -11.667 -105 -35s-54 -56.333 -68 -99c-20 -64 -30 -134 -30 -210v-556h-180z" />
    <glyph glyph-name="s" unicode="s" horiz-adv-x="1024" 
d="M63 317l178.001 28.002c10 -70.667 37.833 -125.167 83.5 -163.5s109.5 -57.5 191.5 -57.5c82.667 0 144 16.833 184 50.5s60 73.167 60 118.5c0 40.667 -17.667 72.667 -53 96c-23.333 15.333 -84.666 35.666 -183.999 60.999c-66 16.667 -122.167 32.167 -168.5 46.5
s-81.833 27.5 -106.5 39.5c-49.333 24 -87.5 57.667 -114.5 101s-40.5 91 -40.5 143c0 47.333 10.833 91 32.5 131s51.167 73.667 88.5 101c27.333 19.333 65.666 36.5 114.999 51.5s101 22.5 155 22.5c82.667 0 155.5 -12 218.5 -36s109.5 -56.167 139.5 -96.5
s51 -95.5 63 -165.5l-176 -24c-8 53.333 -31.333 95.666 -70 126.999s-92.667 47 -162 47c-82.667 0 -141.667 -13.667 -177 -41s-53 -59.333 -53 -96c0 -23.333 7.16699 -44.333 21.5 -63s37.5 -34.667 69.5 -48l159 -46c125.333 -33.333 214 -61.333 266 -84
c49.333 -20.667 88.666 -52 117.999 -94s44 -93.333 44 -154c0 -60 -17.333 -116.333 -52 -169s-85.5 -93.667 -152.5 -123s-141.5 -44 -223.5 -44c-138.667 0 -244 28.667 -316 86s-118 142.333 -138 255z" />
    <glyph glyph-name="t" unicode="t" horiz-adv-x="569" 
d="M528 161l25.999 -159.001c-53.333 -10.667 -98.666 -16 -135.999 -16c-64.667 0 -115 10.167 -151 30.5s-61.5 47.833 -76.5 82.5s-22.5 105.334 -22.5 212.001v611h-132v140h132v263l179 108v-371h181v-140h-181v-621c0 -50.667 3 -83.167 9 -97.5
s16.333 -26.5 31 -36.5c15.333 -8.66699 36 -13 62 -13c14 0 25 0.333008 33 1s23.333 2.66699 46 6z" />
    <glyph glyph-name="u" unicode="u" 
d="M831 0l0.000976562 155.998c-82 -120 -194.333 -180 -337 -180c-61.333 0 -119.333 12 -174 36s-95.334 53.833 -122.001 89.5s-45.334 80.5 -56.001 134.5c-7.33301 36.667 -11 92.667 -11 168v658h180v-589c0 -96.667 3.66699 -160 11 -190
c10.667 -46.667 34.5 -83.667 71.5 -111s82.5 -41 136.5 -41c54.667 0 105.334 13.833 152.001 41.5s80 65.334 100 113.001s30 116.834 30 207.501v569h180v-1062h-161z" />
    <glyph glyph-name="v" unicode="v" horiz-adv-x="1024" 
d="M430 0l-404 1062h190l228 -636c14 -40 28.333 -83.333 43 -130l25 -84c16.667 58.667 39 126 67 202l236 648h185l-402 -1062h-168z" />
    <glyph glyph-name="w" unicode="w" horiz-adv-x="1479" 
d="M331 0l-325 1062h186l169 -613l63 -228l55 219l169 622h185l159 -616l53 -203l61 205l182 614h175l-332 -1062h-187l-169 636l-41 181l-215 -817h-188z" />
    <glyph glyph-name="x" unicode="x" horiz-adv-x="1024" 
d="M15 0l388 552l-359 510h225l163 -249l74 -119l81 117l179 251h215l-367 -500l395 -562h-221l-218 330l-58 89l-279 -419h-218z" />
    <glyph glyph-name="y" unicode="y" horiz-adv-x="1024" 
d="M127 -409l-19.999 169c41.333 -10.667 75.666 -16 102.999 -16c41.333 0 73.5 6.5 96.5 19.5s42.5 31.833 58.5 56.5c10.667 17.333 29 62 55 134l16 44l-403 1064h194l221 -615c12.667 -35.333 26 -75.333 40 -120c11.333 -36 23.666 -78 36.999 -126
c10.667 44 21.5 84.5 32.5 121.5s24.833 77.167 41.5 120.5l227 619h180l-404 -1080c-44 -118.667 -77.667 -199 -101 -241c-32 -59.333 -68.667 -102.833 -110 -130.5s-90.666 -41.5 -147.999 -41.5c-34 0 -72.667 7.33301 -116 22z" />
    <glyph glyph-name="z" unicode="z" horiz-adv-x="1024" 
d="M40 0l0.00195312 146l676 776c-26 0 -61.667 -1 -107 -3s-77.333 -3 -96 -3h-433v146h868v-119l-575 -674l-111 -123c33.333 0 62.666 0.666992 87.999 2c89.333 4.66699 135.666 7 138.999 7h491v-155h-940z" />
    <glyph glyph-name="braceleft" unicode="{" horiz-adv-x="684" 
d="M57 612c50 0 91.166 13.166 123.499 39.499s54.5 63.166 66.5 110.499c5.33301 23.333 9.5 55.5 12.5 96.5s4.5 87.5 4.5 139.5c0 110.667 2.5 189 7.5 235s15.5 86.167 31.5 120.5s36 61.166 60 80.499s55 35 93 47c11.333 2.66699 28 5 50 7s46.667 3 74 3h56v-157h-31
c-69.333 0 -115.333 -12.5 -138 -37.5s-34 -80.833 -34 -167.5c0 -177.333 -3.66699 -287.666 -11 -330.999c-12 -72 -32.333 -127 -61 -165s-74.334 -72.333 -137.001 -103c73.333 -30 126.5 -76.667 159.5 -140s49.5 -166.666 49.5 -309.999
c0 -132.667 1.83301 -215.667 5.5 -249s16.5 -59.166 38.5 -77.499s64.667 -27.5 128 -27.5h31v-157h-56c-65.333 0 -112.666 5.33301 -141.999 16c-41.333 14.667 -76.166 39.167 -104.499 73.5s-47 79 -56 134s-13.5 140.5 -13.5 256.5c0 60 -1.33301 110.833 -4 152.5
s-7 73.834 -13 96.501c-10 46 -31.667 82.333 -65 109c-16.667 13.333 -35.167 23.666 -55.5 30.999s-43.5 11 -69.5 11v163z" />
    <glyph glyph-name="bar" unicode="|" horiz-adv-x="532" 
d="M188 -431v1922h157v-1922h-157z" />
    <glyph glyph-name="braceright" unicode="}" horiz-adv-x="684" 
d="M626 612v-162.997c-50 0 -91.5 -13.5 -124.5 -40.5s-54.833 -63.833 -65.5 -110.5c-5.33301 -22.667 -9.5 -54.5 -12.5 -95.5s-4.5 -87.5 -4.5 -139.5c0 -110.667 -2 -184 -6 -220c-6 -56.667 -17.167 -101.834 -33.5 -135.501s-36.333 -60.334 -60 -80.001
s-54.5 -35.5 -92.5 -47.5c-26 -7.33301 -67.333 -11 -124 -11h-56v157h31c69.333 0 115.333 12.5 138 37.5s34 81.167 34 168.5c0 165.333 3 271 9 317c10 74.667 31 133.667 63 177s77.667 78 137 104c-76 36 -129.833 84.333 -161.5 145s-47.5 162.667 -47.5 306v46v36v29
v23v18v15v12c0 26.667 -1.66699 44.667 -5 54c-4 44 -17 75 -39 93s-64.667 27 -128 27h-31v157h56c65.333 0 112.666 -5.33301 141.999 -16c42 -14 77.167 -38.333 105.5 -73s46.5 -78.667 54.5 -132c4 -28 7.33301 -63.667 10 -107s4 -94 4 -152
c0 -60 1.33301 -110.833 4 -152.5s7 -73.834 13 -96.501c10 -45.333 31.333 -81.333 64 -108c16.667 -14 35.334 -24.5 56.001 -31.5s44 -10.5 70 -10.5z" />
    <glyph glyph-name="asciitilde" unicode="~" horiz-adv-x="1196" 
d="M87 557l0.000976562 205c70 80 162.667 120 278 120c40 0 81.667 -5.66699 125 -17s106.333 -34.666 189 -69.999l60 -23c20 -7.33301 34.333 -12.333 43 -15c23.333 -6 46.666 -9 69.999 -9c42 0 86.5 13.167 133.5 39.5s88.5 58.833 124.5 97.5v-212
c-42 -40 -85 -69 -129 -87s-93.333 -27 -148 -27c-20.667 0 -40.167 1 -58.5 3s-37.166 5.66699 -56.499 11c-36 9.33301 -93.5 31.666 -172.5 66.999s-144.833 53 -197.5 53c-42.667 0 -82.334 -9 -119.001 -27s-84 -54.333 -142 -109z" />
    <glyph glyph-name="nonbreakingspace" unicode="&#xa0;" horiz-adv-x="569" 
 />
    <glyph glyph-name="exclamdown" unicode="&#xa1;" horiz-adv-x="1509" 
d="M758 1491c63.333 0 125.498 -8.00098 186.498 -24.001s122.5 -40.667 184.5 -74c120 -64 213.833 -156.667 281.5 -278s101.5 -247.666 101.5 -378.999c0 -130.667 -33.167 -255.667 -99.5 -375s-159.333 -212.333 -279 -279s-244.834 -100 -375.501 -100
c-129.333 0 -254.166 33 -374.499 99s-213.833 159.5 -280.5 280.5s-100 245.833 -100 374.5c0 132 33.833 258.333 101.5 379s161.834 213.5 282.501 278.5s244.334 97.5 371.001 97.5zM757.998 1366c-106 0 -209.169 -27.167 -309.502 -81.5
s-178.833 -132.166 -235.5 -233.499s-85 -206.333 -85 -315s27.667 -212.5 83 -311.5s133.333 -176.667 234 -233s205 -84.5 313 -84.5c108.667 0 212.834 27.833 312.501 83.5s177.334 133.5 233.001 233.5s83.5 204 83.5 312c0 109.333 -28 214.166 -84 314.499
s-134.667 178 -236 233s-204.333 82.5 -309 82.5zM999.996 613.999l123.001 -36.002c-20 -82.667 -62.5 -149 -127.5 -199s-143.833 -75 -236.5 -75c-116.667 0 -211.834 38.167 -285.501 114.5s-110.5 181.5 -110.5 315.5c0 88.667 16.667 165.334 50 230.001
s81 113.5 143 146.5s132.333 49.5 211 49.5c88 0 161.333 -21.167 220 -63.5s99 -99.833 121 -172.5l-119 -29c-20 48.667 -49.5 86.334 -88.5 113.001s-84.833 40 -137.5 40c-76 0 -139 -27.333 -189 -82s-75 -133 -75 -235s23.5 -179.167 70.5 -231.5
s107.833 -78.5 182.5 -78.5c60 0 112.667 17.167 158 51.5s75.333 81.5 90 141.5z" />
    <glyph glyph-name="cent" unicode="&#xa2;" 
d="M143 -70l180.997 26c18 -86 47.5 -146.667 88.5 -182s96.5 -53 166.5 -53c68.667 0 122 17.333 160 52s57 75.334 57 122.001c0 33.333 -12 64.666 -36 93.999c-40 49.333 -153.333 131 -340 245c-99.333 60.667 -168 107.834 -206 141.501s-70 74.5 -96 122.5
c-11.333 22 -20.333 45.5 -27 70.5s-10 50.167 -10 75.5c0 64 20 121.833 60 173.5s95 88.167 165 109.5c-47.333 45.333 -80.666 87.166 -99.999 125.499s-29 79.166 -29 122.499c0 85.333 33.333 159.333 100 222s155 94 265 94c124.667 0 222 -29.5 292 -88.5
s112 -145.167 126 -258.5l-187 -19c-14 80.667 -38.333 137.167 -73 169.5s-82 48.5 -142 48.5c-61.333 0 -110.833 -16.333 -148.5 -49s-56.5 -69.334 -56.5 -110.001c0 -34 12 -66 36 -96c36.667 -44 138.667 -117.333 306 -220c100.667 -62 171.334 -109 212.001 -141
c46 -39.333 80.5 -80.666 103.5 -123.999s34.5 -89.666 34.5 -138.999c0 -75.333 -24.333 -139.666 -73 -192.999c-28 -30 -79.333 -61 -154 -93c52.667 -39.333 92.334 -82.833 119.001 -130.5s40 -97.834 40 -150.501c0 -58.667 -16.5 -114 -49.5 -166
s-80.833 -92 -143.5 -120s-130.667 -42 -204 -42c-126.667 0 -227.167 31.667 -301.5 95s-119.5 152 -135.5 266zM727.997 244c48 24.667 84.5 54.168 109.5 88.501s37.5 67.166 37.5 98.499c0 38.667 -17.333 78.667 -52 120s-109.667 97.666 -225 168.999
c-90.667 56 -158.667 102 -204 138c-54 -30 -92.5 -60.5 -115.5 -91.5s-34.5 -65.167 -34.5 -102.5c0 -42.667 15 -82.5 45 -119.5s99.333 -87.833 208 -152.5c91.333 -53.333 168.333 -102.666 231 -147.999z" />
    <glyph glyph-name="sterling" unicode="&#xa3;" horiz-adv-x="569" 
d="M185 857v205h205v-205h-205zM185 0v205h205v-205h-205z" />
    <glyph glyph-name="currency" unicode="&#xa4;" horiz-adv-x="682" 
d="M204 -431l-128.999 0.000976562c199.333 320.667 299 641 299 961c0 126 -14.333 250.333 -43 373c-10.667 50 -23.834 99 -39.501 147s-34.167 95 -55.5 141c-28 64.667 -81.667 164.667 -161 300h129c124 -165.333 216.667 -333.333 278 -504
c51.333 -146 77 -298 77 -456c0 -181.333 -34.333 -355.833 -103 -523.5s-152.667 -313.834 -252 -438.501z" />
    <glyph glyph-name="yen" unicode="&#xa5;" horiz-adv-x="682" 
d="M479 -431c-99.333 126 -183.334 273.167 -252.001 441.5s-103 341.833 -103 520.5c0 160 25.667 312 77 456c60.667 170 153.334 338 278.001 504h129c-78.667 -135.333 -132 -234.333 -160 -297c-40 -92 -72 -188 -96 -288c-14 -62.667 -24.667 -125 -32 -187
s-11 -125 -11 -189c0 -320.667 99.667 -641 299 -961h-129z" />
    <glyph glyph-name="brokenbar" unicode="&#xa6;" 
d="M791 528l-261 456h148l319 -456l-319 -456h-147zM404 528l-264 456h151l314 -456l-314 -456h-151z" />
    <glyph glyph-name="section" unicode="&#xa7;" 
d="M340 528l259 -456h-146l-319 456l319 456h148zM727 528l264 -456h-152l-313 456l313 456h152z" />
    <glyph glyph-name="dieresis" unicode="&#xa8;" horiz-adv-x="1116" 
d="M319 317c0 -62 13.666 -107.499 40.999 -136.499s68.333 -43.5 123 -43.5c105.333 0 180.5 28 225.5 84s67.5 125.667 67.5 209v299h176l-2 -584h165l1 -139l-334 -2v168c-21.333 -29.333 -37.333 -50.333 -48 -63c-19.333 -24 -42.666 -46 -69.999 -66
c-23.333 -18 -53.666 -32.333 -90.999 -43s-80.333 -16 -129 -16c-36.667 0 -69.5 4.33301 -98.5 13s-60.833 24.667 -95.5 48s-60.834 51.666 -78.501 84.999s-26.5 68.333 -26.5 105l-2 1246h176v-1164z" />
    <glyph glyph-name="copyright" unicode="&#xa9;" horiz-adv-x="453" 
d="M360 6h-184v180h184v-180z" />
    <glyph glyph-name="ordfeminine" unicode="&#xaa;" horiz-adv-x="371" 
d="M100 1483l201 -252l-25 -23l-231 219z" />
    <glyph glyph-name="guillemotleft" unicode="&#xab;" horiz-adv-x="453" 
d="M297 6h-121v191h184v-189c0 -27.333 -3.83301 -58.166 -11.5 -92.499s-24.5 -67.833 -50.5 -100.5s-64 -56.334 -114 -71.001v61c75.333 28 113 95 113 201z" />
    <glyph glyph-name="logicalnot" unicode="&#xac;" horiz-adv-x="498" 
d="M74 389v107h350v-107h-350z" />
    <glyph glyph-name="minus" unicode="&#xad;" horiz-adv-x="752" 
d="M602 416c-96 -50.667 -198.332 -75.999 -306.999 -75.999c-52 0 -110 7 -174 21l-96 22l94 156l38 -25c21.333 -14.667 51.333 -29.334 90 -44.001c36.667 -12.667 78 -19 124 -19c55.333 0 114.666 10 177.999 30z" />
    <glyph glyph-name="registered" unicode="&#xae;" horiz-adv-x="1372" 
d="M360 6h-184v180h184v-180zM782 6h-184v180h184v-180zM1210 6h-182v180h182v-180z" />
    <glyph glyph-name="macron" unicode="&#xaf;" horiz-adv-x="666" 
d="M238 1309c-39.333 0 -69.833 -6.99902 -91.5 -20.999s-40.834 -32.333 -57.501 -55c-14 -20.667 -22.667 -32.334 -26 -35.001l-16 96c6 10 17.333 23.333 34 40c15.333 14 37.333 29.667 66 47c28 14.667 58.333 22 91 22h69l40 -3l83 -3
c31.333 0 60.833 7.16699 88.5 21.5s51.5 30.5 71.5 48.5l28 28v-92l-28 -31c-12 -12 -31.667 -25.667 -59 -41c-26.667 -13.333 -56.334 -20 -89.001 -20h-121c-7.33301 0 -20.166 -0.333008 -38.499 -1s-33.166 -1 -44.499 -1z" />
    <glyph glyph-name="degree" unicode="&#xb0;" horiz-adv-x="272" 
d="M49 1204l180 266h84l-213 -266h-51z" />
    <glyph glyph-name="plusminus" unicode="&#xb1;" horiz-adv-x="705" 
d="M43 1247c0 30 0.5 50.6699 1.5 62.0029s3.16699 27.333 6.5 48c6 36 20.333 72.333 43 109s60 68.667 112 96c26 13.333 56 23.333 90 30s73.333 10 118 10c70 0 120.833 -14.5 152.5 -43.5s47.5 -82.167 47.5 -159.5c0 -60 -18.333 -105 -55 -135s-83.667 -45 -141 -45
c-28 0 -53.667 3.66699 -77 11s-43.333 17.666 -60 30.999c-32 27.333 -48 74.666 -48 141.999h91c0 -39.333 8.33301 -65.833 25 -79.5s41 -20.5 73 -20.5s56.667 5.66699 74 17s26 38.333 26 81c0 42 -7.66699 69.167 -23 81.5s-41 21.166 -77 26.499l-57 4
c-94 0 -155.167 -26.167 -183.5 -78.5s-42.5 -114.833 -42.5 -187.5h-96z" />
    <glyph glyph-name="twosuperior" unicode="&#xb2;" horiz-adv-x="1309" 
d="M623 -25c-96 0 -180.33 18.168 -252.997 54.501s-129 87 -169 152s-60 137.5 -60 217.5v1082h195v-1071c0 -81.333 15.5 -142.833 46.5 -184.5s67.5 -68.5 109.5 -80.5c44 -10.667 89.667 -16 137 -16c48 0 92.167 5.33301 132.5 16s76.833 37.167 109.5 79.5
s49 104.166 49 185.499v1071h194v-1078c0 -26 -1.66699 -49 -5 -69s-9 -39.333 -17 -58c-14.667 -34 -27 -57 -37 -69l196 -141l-94 -158l-213 153c-52.667 -32 -103.334 -54 -152.001 -66c-22.667 -6 -49.334 -10.833 -80.001 -14.5s-60.334 -5.5 -89.001 -5.5z" />
    <glyph glyph-name="threesuperior" unicode="&#xb3;" horiz-adv-x="1671" 
d="M735 1034h182.999v-712c0 -62.667 18 -112.5 54 -149.5s80 -55.5 132 -55.5c33.333 0 68 10.667 104 32s65.5 51.166 88.5 89.499s34.5 79.5 34.5 123.5v672h185v-1034h-185v147c-16.667 -40 -49.5 -77.833 -98.5 -113.5s-105.5 -53.5 -169.5 -53.5
c-54 0 -98.167 6.16699 -132.5 18.5s-61.5 27.833 -81.5 46.5c-6.66699 6.66699 -15.167 16.5 -25.5 29.5s-19.666 25.667 -27.999 38l-20.5 29.5c-7.33301 9.33301 -13 16 -17 20c-20.667 -40 -58.167 -80.333 -112.5 -121s-113.166 -61 -176.499 -61
c-74.667 0 -136.5 13.167 -185.5 39.5s-85.333 59.833 -109 100.5s-35.5 82 -35.5 124v790h174v-712c0 -61.333 18.667 -108.166 56 -140.499s83.666 -48.5 138.999 -48.5c35.333 0 71 9.5 107 28.5s65 45.833 87 80.5s33 74.667 33 120v672z" />
    <glyph glyph-name="acute" unicode="&#xb4;" horiz-adv-x="1282" 
d="M336 1059l-0.000976562 -502.001h803v-160h-803v-397h-195v1071c0 72.667 17.167 140.834 51.5 204.501s88.333 115.5 162 155.5s165.167 60 274.5 60c108.667 0 199.334 -20 272.001 -60s126.334 -92 161.001 -156s52 -132 52 -204v-260h-194v248c0 82 -16 143 -48 183
s-68.833 65.833 -110.5 77.5s-85.834 17.5 -132.501 17.5c-80.667 0 -149.667 -17.167 -207 -51.5s-86 -109.833 -86 -226.5z" />
    <glyph glyph-name="mu" unicode="&#xb5;" horiz-adv-x="1114" 
d="M319 1034l-0.00195312 -160.001c14 18.667 29 37.667 45 57c13.333 16.667 25.333 30.334 36 41.001c20.667 22 52.5 41.333 95.5 58s96.833 25 161.5 25c51.333 0 95.833 -7.66699 133.5 -23s68.834 -36.5 93.501 -63.5s42.834 -55.667 54.501 -86
s17.5 -61.833 17.5 -94.5v-469h-176v392c0 126.667 -54.667 190 -164 190c-102.667 0 -176.667 -35.5 -222 -106.5s-68 -151.5 -68 -241.5v-426h647v-127h-647v-428h-176v1462h169z" />
    <glyph glyph-name="paragraph" unicode="&#xb6;" horiz-adv-x="1331" 
d="M1085 0l-188.002 0.000976562v393h-293c-108 0 -198.5 19.833 -271.5 59.5s-126.833 91.667 -161.5 156s-52 132.5 -52 204.5v258c0 71.333 17 139.166 51 203.499s87.833 116.5 161.5 156.5s164.5 60 272.5 60c108.667 0 199.834 -20 273.501 -60
s127.834 -92 162.501 -156s52 -132 52 -204v-524h206v-154h-213v-393zM603.998 547.001l292.998 0.000976562v512c0 116 -28.833 191.333 -86.5 226s-126.5 52 -206.5 52c-23.333 0 -46.166 -1.33301 -68.499 -4s-43.833 -7 -64.5 -13c-40 -10 -76.333 -35.333 -109 -76
s-49 -102.334 -49 -185.001v-219c0 -118 30.833 -196.333 92.5 -235s127.834 -58 198.501 -58z" />
    <glyph glyph-name="periodcentered" unicode="&#xb7;" horiz-adv-x="1217" 
d="M983 604l-0.00195312 -477.002h205v-127h-205v-428h-182v553c-33.333 -49.333 -73.166 -87.333 -119.499 -114s-104.166 -40 -173.499 -40c-70.667 0 -132.5 15.333 -185.5 46s-97.5 72.667 -133.5 126c-32.667 50 -58.334 107 -77.001 171
c-8.66699 32.667 -15.167 64.834 -19.5 96.501s-6.5 63.5 -6.5 95.5c0 113.333 19.333 211.833 58 295.5s92.834 147.834 162.501 192.501s147.167 67 232.5 67c146 0 256.5 -38.167 331.5 -114.5s112.5 -190.5 112.5 -342.5zM814.998 509.998
c0 138.667 -21.166 241.669 -63.499 309.002s-108.5 101 -198.5 101c-68.667 0 -124.334 -17.833 -167.001 -53.5s-73 -83.834 -91 -144.501s-27 -131.334 -27 -212.001c0 -118 24.5 -213.333 73.5 -286s122.833 -109 221.5 -109c74 0 134.5 31.5 181.5 94.5
s70.5 163.167 70.5 300.5z" />
    <glyph glyph-name="periodcentered" unicode="&#x2219;" horiz-adv-x="1217" 
d="M983 604l-0.00195312 -477.002h205v-127h-205v-428h-182v553c-33.333 -49.333 -73.166 -87.333 -119.499 -114s-104.166 -40 -173.499 -40c-70.667 0 -132.5 15.333 -185.5 46s-97.5 72.667 -133.5 126c-32.667 50 -58.334 107 -77.001 171
c-8.66699 32.667 -15.167 64.834 -19.5 96.501s-6.5 63.5 -6.5 95.5c0 113.333 19.333 211.833 58 295.5s92.834 147.834 162.501 192.501s147.167 67 232.5 67c146 0 256.5 -38.167 331.5 -114.5s112.5 -190.5 112.5 -342.5zM814.998 509.998
c0 138.667 -21.166 241.669 -63.499 309.002s-108.5 101 -198.5 101c-68.667 0 -124.334 -17.833 -167.001 -53.5s-73 -83.834 -91 -144.501s-27 -131.334 -27 -212.001c0 -118 24.5 -213.333 73.5 -286s122.833 -109 221.5 -109c74 0 134.5 31.5 181.5 94.5
s70.5 163.167 70.5 300.5z" />
    <glyph glyph-name="cedilla" unicode="&#xb8;" horiz-adv-x="1341" 
d="M346 641l-194 0.000976562v430c0 71.333 17 139.166 51 203.499s87.833 116.5 161.5 156.5s164.5 60 272.5 60c109.333 0 200.5 -20.167 273.5 -60.5s126.833 -92.333 161.5 -156s52 -131.5 52 -203.5v-524h207v-154h-207v-393h-196v1059c0 116 -28.667 191.333 -86 226
s-125.666 52 -204.999 52c-49.333 0 -93.833 -5.33301 -133.5 -16s-75.834 -36.5 -108.501 -77.5s-49 -102.5 -49 -184.5v-418z" />
    <glyph glyph-name="onesuperior" unicode="&#xb9;" horiz-adv-x="1167" 
d="M780 -428l-0.00195312 1139c0 126.667 -54.667 190 -164 190c-102.667 0 -176.667 -35.5 -222 -106.5s-68 -151.5 -68 -241.5v-553h-176v1034h169v-164c34 45.333 61.333 78.666 82 99.999c19.333 21.333 50.5 40.833 93.5 58.5s97.167 26.5 162.5 26.5
c51.333 0 95.833 -7.66699 133.5 -23s68.834 -36.5 93.501 -63.5s42.834 -55.667 54.501 -86s17.5 -61.833 17.5 -94.5v-661h205v-127h-205v-428h-176z" />
    <glyph glyph-name="ordmasculine" unicode="&#xba;" horiz-adv-x="1282" 
d="M336 922v-511.999c0 -81.333 15.5 -142.833 46.5 -184.5s67.5 -68.5 109.5 -80.5c44 -10.667 89.667 -16 137 -16c48 0 92.167 5.33301 132.5 16s76.833 37.167 109.5 79.5s49 104.166 49 185.499v215h194v-230c0 -52.667 -9.33301 -103.834 -28 -153.501
s-47.834 -94.667 -87.501 -135s-91 -72.333 -154 -96s-134.833 -35.5 -215.5 -35.5c-109.333 0 -200.666 20 -273.999 60s-127.333 91.833 -162 155.5s-52 131.834 -52 204.501v1082h195v-398h778v-157h-778z" />
    <glyph glyph-name="guillemotright" unicode="&#xbb;" horiz-adv-x="1116" 
d="M952 729l0.00195312 -725.003h-170v168l-28 -37c-15.333 -19.333 -27 -33.666 -35 -42.999c-12.667 -14.667 -30.334 -30.667 -53.001 -48s-53.5 -31.666 -92.5 -42.999s-82.167 -17 -129.5 -17c-68 0 -124.333 12.833 -169 38.5s-77.834 57.834 -99.501 96.501
s-32.5 79 -32.5 121v1241h176v-443h652v-127h-652v-594c0 -62 13.667 -107.5 41 -136.5s68.333 -43.5 123 -43.5c105.333 0 180.5 28 225.5 84s67.5 125.667 67.5 209v299h176z" />
    <glyph glyph-name="onequarter" unicode="&#xbc;" horiz-adv-x="1368" 
d="M360 1014v-95.9971h263v-160h-453v270c0 52 11.5 105.667 34.5 161s56.333 105.666 100 150.999s98 81.833 163 109.5s139.167 41.5 222.5 41.5c179.333 0 317.333 -51.333 414 -154s145 -259 145 -469c0 -74.667 -13.167 -146.834 -39.5 -216.501
s-60.5 -129.834 -102.5 -180.501s-89.333 -94 -142 -130s-103.334 -60.333 -152.001 -73h152c80.667 0 141.834 -17.167 183.501 -51.5s68.5 -72.5 80.5 -114.5s18 -79.333 18 -112h-174c0 77.333 -47 116 -141 116h-580v-110h-182v471h182v-203h99
c79.333 0 156 15.5 230 46.5s138.833 73.5 194.5 127.5s99.834 117.667 132.501 191s49 150.333 49 231c0 106 -13.167 194.167 -39.5 264.5s-66.833 123.333 -121.5 159s-123.334 53.5 -206.001 53.5c-24.667 0 -52.667 -3.66699 -84 -11c-32.667 -6 -68 -20 -106 -42
s-70.833 -55.5 -98.5 -100.5s-41.5 -101.5 -41.5 -169.5z" />
    <glyph glyph-name="onehalf" unicode="&#xbd;" horiz-adv-x="1204" 
d="M1184 -428l-377.001 -0.000976562v555c-29.333 -45.333 -70.833 -82.666 -124.5 -111.999s-115.167 -44 -184.5 -44c-89.333 0 -164.5 25.833 -225.5 77.5s-107.167 118.5 -138.5 200.5c-15.333 41.333 -27.166 83.333 -35.499 126s-12.5 85 -12.5 127
c0 84.667 11.167 162.667 33.5 234s52.666 130.5 90.999 177.5s84.833 83.333 139.5 109s113.334 38.5 176.001 38.5c86.667 0 152.667 -17 198 -51s75 -62.667 89 -86v110h168v-1343h203v-119zM812.999 505.999c0 81.333 -10.332 153.169 -30.999 215.502
s-51.334 111 -92.001 146s-89.667 52.5 -147 52.5c-94 0 -163.333 -38.5 -208 -115.5s-67 -175.167 -67 -294.5c0 -73.333 11 -140.333 33 -201s54.5 -108.167 97.5 -142.5s94.5 -51.5 154.5 -51.5c42.667 0 84 15.667 124 47s72.667 77.166 98 137.499
s38 129.166 38 206.499z" />
    <glyph glyph-name="threequarters" unicode="&#xbe;" horiz-adv-x="993" 
d="M745 162v-162h-573v1477h197v-398h512v-157h-512v-760h376z" />
    <glyph glyph-name="questiondown" unicode="&#xbf;" horiz-adv-x="780" 
d="M477 127c80 0 133 -26.3311 159 -78.998c13.333 -26.667 23.333 -54.834 30 -84.501s10 -63.834 10 -102.501h-133c0 44 -8 78.667 -24 104c-16 23.333 -47.667 35 -95 35h-277v1481h177v-447h364v-127h-364v-780h153z" />
    <glyph glyph-name="Agrave" unicode="&#xc0;" horiz-adv-x="1282" 
d="M1102 0h-973.001v1071c0 72 16.833 139.5 50.5 202.5s87.667 115 162 156s165.833 61.5 274.5 61.5s199.834 -20.167 273.501 -60.5s127.5 -92.333 161.5 -156s51 -131.5 51 -203.5v-424h-195v412c0 116 -29.5 191.333 -88.5 226s-126.5 52 -202.5 52
c-80 0 -148.667 -17.167 -206 -51.5s-86 -109.833 -86 -226.5v-899h778v-160z" />
    <glyph glyph-name="Aacute" unicode="&#xc1;" horiz-adv-x="1114" 
d="M956 799l0.000976562 -799.002h-176v721c0 64.667 -13.167 110.834 -39.5 138.501s-67.833 41.5 -124.5 41.5c-70.667 0 -127.5 -16 -170.5 -48s-73.667 -72.5 -92 -121.5s-27.5 -101.167 -27.5 -156.5v-874h649v-129h-825v1462h169v-170l50 64c22 28 44 50.333 66 67
s51.667 30.834 89 42.501s81.666 17.5 132.999 17.5c96.667 0 170.667 -25.333 222 -76s77 -110.667 77 -180z" />
    <glyph glyph-name="Acircumflex" unicode="&#xc2;" horiz-adv-x="1661" 
d="M932 754c-68 0 -118.169 -8.16699 -150.502 -24.5s-54.5 -45.5 -66.5 -87.5c-6 -22.667 -10.667 -49.167 -14 -79.5s-5 -69.166 -5 -116.499c0 -57.333 3 -102.833 9 -136.5s18.5 -61.834 37.5 -84.501s47.5 -40 85.5 -52c19.333 -5.33301 42.5 -9.5 69.5 -12.5
s56.167 -4.5 87.5 -4.5c208.667 0 313 93.333 313 280v617c0 116.667 -29.667 192.167 -89 226.5s-130.666 51.5 -213.999 51.5h-366c-9.33301 0 -16.333 0.666992 -21 2h-30c-169.333 0 -254 -93.333 -254 -280v-1053h-195v1071c0 78.667 16.833 149.167 50.5 211.5
s87.334 112.666 161.001 150.999s165.5 57.5 275.5 57.5h392c108.667 0 199.334 -20 272.001 -60s126.334 -92 161.001 -156s52 -132 52 -204v-649c0 -71.333 -16.833 -139.333 -50.5 -204s-87.834 -117.834 -162.501 -159.501s-166 -62.5 -274 -62.5
c-96 0 -175.167 7.66699 -237.5 23s-112.666 39.833 -150.999 73.5s-66.5 79 -84.5 136s-27 128.167 -27 213.5c0 122.667 13.167 218.334 39.5 287.001s70.166 117.334 131.499 146.001s145.666 43 252.999 43h250v-164h-248z" />
    <glyph glyph-name="Atilde" unicode="&#xc3;" horiz-adv-x="1163" 
d="M1020 377c-2 -16 -6 -34.668 -12 -56.001s-14.667 -47.666 -26 -78.999c-20.667 -60 -61.5 -120.167 -122.5 -180.5s-144.167 -90.5 -249.5 -90.5c-140 0 -238.333 49.333 -295 148v-547h-176v1462h164v-133c12 25.333 40 58.333 84 99s109 61 195 61
c129.333 0 227.833 -35.833 295.5 -107.5s111 -149.167 130 -232.5s28.5 -157 28.5 -221h99v-123h-115zM303 374.999c0 -51.333 12.833 -97.5 38.5 -138.5s59.667 -73 102 -96s86.166 -34.5 131.499 -34.5c50 0 96.333 12.333 139 37s77.334 57.667 104.001 99
c13.333 21.333 23.333 42.5 30 63.5s10 44.167 10 69.5h-555zM303 527.999l-0.00195312 -30h567l-2 34c0 70.667 -11.333 137 -34 199c-20 58.667 -53 106.167 -99 142.5s-102.667 54.5 -170 54.5c-53.333 0 -100.166 -17 -140.499 -51s-70.666 -81.167 -90.999 -141.5
s-30.5 -129.5 -30.5 -207.5z" />
    <glyph glyph-name="Adieresis" unicode="&#xc4;" horiz-adv-x="1341" 
d="M915 1470l188.999 0.000976562v-393h203v-153h-197v-525c0 -72.667 -17.167 -140.5 -51.5 -203.5s-88.166 -114.667 -161.499 -155s-164.666 -60.5 -273.999 -60.5c-108 0 -198.833 20 -272.5 60s-127.667 91.833 -162 155.5s-51.5 131.5 -51.5 203.5v258
c0 71.333 17 139.166 51 203.499s88.167 116.5 162.5 156.5s165.166 60 272.499 60h292v393zM914.999 924.001l-292.001 -0.000976562l-15 2l-28 2c-61.333 0 -118 -20.333 -170 -61s-78 -118.667 -78 -234v-219c0 -81.333 16 -142.666 48 -183.999
s68.833 -67.833 110.5 -79.5s85.834 -17.5 132.501 -17.5c50 0 95.5 5.5 136.5 16.5s77.167 37.667 108.5 80s47 103.833 47 184.5v510z" />
    <glyph glyph-name="Aring" unicode="&#xc5;" horiz-adv-x="1192" 
d="M991 907v-476.999c0 -43.333 -4.83301 -84.666 -14.5 -123.999s-24.167 -77 -43.5 -113c-36 -68.667 -87.833 -122.834 -155.5 -162.501s-146.5 -59.5 -236.5 -59.5c-42.667 0 -83 5.5 -121 16.5s-74.333 27.833 -109 50.5c-66 44 -118 108.167 -156 192.5
s-57 183.5 -57 297.5c0 83.333 16 166.666 48 249.999c30 80 76.667 145.167 140 195.5s142 75.5 236 75.5h287v432h182v-434h201v-140h-201zM815 913.001l-250 -0.00195312c-64 0 -117 -16.333 -159 -49s-73 -78.167 -93 -136.5s-30 -126.166 -30 -203.499
c0 -123.333 21 -222.333 63 -297s112.333 -112 211 -112c42 0 79.667 9.16699 113 27.5s60.5 44.833 81.5 79.5s36.833 78.334 47.5 131.001c5.33301 28 9.33301 55.5 12 82.5s4 57.833 4 92.5v385z" />
    <glyph glyph-name="AE" unicode="&#xc6;" horiz-adv-x="1272" 
d="M317 1481l-0.000976562 -450.999c16.667 19.333 50.834 44.666 102.501 75.999s117.167 47 196.5 47c108.667 0 199.834 -20.167 273.501 -60.5s127.5 -92.333 161.5 -156s51 -131.5 51 -203.5v-264h-195v250c0 115.333 -29.333 190.833 -88 226.5
s-126.334 53.5 -203.001 53.5c-80.667 0 -149.5 -21.333 -206.5 -64s-85.5 -106.667 -85.5 -192v-743h-195v1481h188z" />
    <glyph glyph-name="Ccedilla" unicode="&#xc7;" horiz-adv-x="1114" 
d="M326 561l0.000976562 -993h-176v1913h174v-607l46 58.5c12 15 23.667 28.833 35 41.5c19.333 20 49.833 38.167 91.5 54.5s95.167 24.5 160.5 24.5c53.333 0 98.666 -8.16699 135.999 -24.5s67.833 -37.5 91.5 -63.5s41.5 -54.833 53.5 -86.5s18 -63.167 18 -94.5v-788
l-176 2v711c0 126.667 -54.667 190 -164 190c-70 0 -126.333 -16.667 -169 -50s-73.5 -75.833 -92.5 -127.5s-28.5 -105.167 -28.5 -160.5z" />
    <glyph glyph-name="Egrave" unicode="&#xc8;" horiz-adv-x="1051" 
d="M141 1481h195v-1321h639v-160h-834v1481z" />
    <glyph glyph-name="Eacute" unicode="&#xc9;" horiz-adv-x="707" 
d="M336 1034v-1333h338v-129h-512v1462h174z" />
    <glyph glyph-name="Ecircumflex" unicode="&#xca;" horiz-adv-x="1819" 
d="M684 922l-338.001 -0.00195312v-922h-194v1477h194v-398h533v-678c0 -81.333 15 -142.666 45 -183.999s65 -68 105 -80c41.333 -10.667 85.333 -16 132 -16c48 0 92 5.33301 132 16s76.5 36.834 109.5 78.501s49.5 103.5 49.5 185.5v684h195v-698
c0 -72 -17 -139.667 -51 -203s-87.667 -115.333 -161 -156s-164.666 -61 -273.999 -61c-160 0 -279.5 42 -358.5 126s-118.5 183.333 -118.5 298v531z" />
    <glyph glyph-name="Edieresis" unicode="&#xcb;" horiz-adv-x="1620" 
d="M745 244l-0.000976562 661.002h-430v-1333h-176v1909h174v-447h605v-712c0 -62.667 18 -112.5 54 -149.5s80 -55.5 132 -55.5c33.333 0 68 10.667 104 32s65.5 51.166 88.5 89.499s34.5 79.5 34.5 123.5v672h185v-1034h-185v147c-16.667 -40 -49.5 -77.833 -98.5 -113.5
s-105.5 -53.5 -169.5 -53.5c-105.333 0 -184.666 27.167 -237.999 81.5s-80 115.166 -80 182.499z" />
    <glyph glyph-name="Igrave" unicode="&#xcc;" horiz-adv-x="1620" 
d="M262 1313v157h1030v-157h-1030zM150 598c0 117.333 24.001 224.332 72.001 320.999s119.5 173.167 214.5 229.5s208.167 84.5 339.5 84.5c138 0 255 -27.833 351 -83.5s168.667 -132.167 218 -229.5s74 -204.666 74 -321.999c0 -86 -15.167 -167.5 -45.5 -244.5
s-73 -143.833 -128 -200.5s-122.5 -101.5 -202.5 -134.5s-166.333 -49.5 -259 -49.5c-100.667 0 -190.334 16.333 -269.001 49s-145.167 77.667 -199.5 135s-95.5 124 -123.5 200s-42 157.667 -42 245zM793.001 128.999c24.667 0 50.168 2.66699 76.501 8
s52.166 12.666 77.499 21.999c49.333 18.667 95.666 47.667 138.999 87s78 88.333 104 147c12.667 30 22.334 61.667 29.001 95s10 69.333 10 108c0 154 -39.167 273.667 -117.5 359s-190.166 128 -335.499 128c-71.333 0 -135.166 -11 -191.499 -33
s-101.833 -53 -136.5 -93s-61.334 -91 -80.001 -153s-28 -131.333 -28 -208c0 -74 13 -140.667 39 -200s60.667 -108.666 104 -147.999s91.666 -69 144.999 -89c28.667 -10 56.167 -17.5 82.5 -22.5s53.833 -7.5 82.5 -7.5z" />
    <glyph glyph-name="Iacute" unicode="&#xcd;" 
d="M555 1061c-21.333 15.333 -48.5 43.334 -81.5 84.001s-49.5 87 -49.5 139c0 85.333 58 164 174 236l104 -107c-81.333 -30 -122 -72.333 -122 -127c0 -36 17.5 -75.167 52.5 -117.5s81.5 -83.833 139.5 -124.5h299v-131h-209c8 -5.33301 21.333 -20.833 40 -46.5
s37.167 -72.5 55.5 -140.5s27.5 -156.333 27.5 -265c0 -65.333 -9.83301 -127.833 -29.5 -187.5s-48.5 -112.167 -86.5 -157.5s-83.5 -80.833 -136.5 -106.5s-113.5 -38.5 -181.5 -38.5c-86 0 -163.833 22.333 -233.5 67s-125.334 109.167 -167.001 193.5
s-62.5 183.166 -62.5 296.499c0 41.333 4.33301 82.833 13 124.5s21.334 83.5 38.001 125.5c32 81.333 80 148.5 144 201.5s139.667 79.5 227 79.5zM815 530.001c0 61.333 -7.99805 123.667 -23.998 187s-39.667 115 -71 155c-16 20 -33.167 35.333 -51.5 46
s-38.5 16 -60.5 16c-87.333 0 -156 -17.5 -206 -52.5s-84.167 -82.333 -102.5 -142s-27.5 -131.5 -27.5 -215.5c0 -80 9.16699 -150 27.5 -210s49.166 -108.167 92.499 -144.5s98.333 -54.5 165 -54.5c64.667 0 116 20.167 154 60.5s64.667 90.833 80 151.5
c7.33301 30.667 13.166 63.167 17.499 97.5s6.5 69.5 6.5 105.5z" />
    <glyph glyph-name="Icircumflex" unicode="&#xce;" horiz-adv-x="1292" 
d="M926 420c-12 -14 -40.999 -33 -86.999 -57c-24 -11.333 -52.5 -20 -85.5 -26s-72.5 -9 -118.5 -9c-108 0 -198.5 19.833 -271.5 59.5s-126.833 91.667 -161.5 156s-52 132.5 -52 204.5v733h194v-719c0 -116 29.167 -191.833 87.5 -227.5s126.166 -53.5 203.499 -53.5
c60 0 123.5 10.833 190.5 32.5s100.5 60.167 100.5 115.5v407h196v-1036l-196 -4v424z" />
    <glyph glyph-name="Idieresis" unicode="&#xcf;" horiz-adv-x="1114" 
d="M326 1481v-1168c0 -63.333 13.167 -109.166 39.5 -137.499s67.5 -42.5 123.5 -42.5c104.667 0 179.334 27.833 224.001 83.5s67 125.5 67 209.5v608h176v-1462h-170v590c-32.667 -43.333 -59.667 -76.666 -81 -99.999c-20 -20 -51 -39 -93 -57
c-44 -16.667 -97.667 -25 -161 -25c-68 0 -124.333 12.833 -169 38.5s-77.834 57.834 -99.501 96.501s-32.5 79 -32.5 121v1245h176z" />
    <glyph glyph-name="Eth" unicode="&#xd0;" horiz-adv-x="1204" 
d="M1030 449v-449.001h-196v449c0 68.667 -15 121.5 -45 158.5s-66.5 61.333 -109.5 73s-89.833 17.5 -140.5 17.5h-414v156h446c64 0 124.5 16.167 181.5 48.5s85.5 96.833 85.5 193.5c0 160.667 -83.333 241 -250 241h-463v154h416c86 0 159.833 -7 221.5 -21
s112.167 -36 151.5 -66c37.333 -28 66 -67 86 -117c9.33301 -24.667 16.333 -51 21 -79s7 -59.333 7 -94c0 -115.333 -23.833 -196 -71.5 -242s-87.834 -73 -120.501 -81c12.667 -2.66699 34.334 -13.667 65.001 -33c28 -17.333 56.5 -51.666 85.5 -102.999
s43.5 -120 43.5 -206z" />
    <glyph glyph-name="Ntilde" unicode="&#xd1;" horiz-adv-x="1114" 
d="M326 575l-0.00195312 -575.001h-176v1481h169v-607c14 18.667 29 37.667 45 57c13.333 16.667 25.333 30.334 36 41.001c20.667 22 52.5 41.333 95.5 58s96.833 25 161.5 25c51.333 0 95.833 -7.66699 133.5 -23s68.834 -36.5 93.501 -63.5s42.834 -55.667 54.501 -86
s17.5 -61.833 17.5 -94.5v-788h-176v711c0 126.667 -54.667 190 -164 190c-70.667 0 -127.5 -16 -170.5 -48s-73.667 -72.5 -92 -121.5s-27.5 -101.167 -27.5 -156.5z" />
    <glyph glyph-name="Ograve" unicode="&#xd2;" horiz-adv-x="1393" 
d="M354 889l-194.005 4v135c0 52 11.5 105.667 34.5 161s56.333 105.666 100 150.999s98 81.833 163 109.5s139.167 41.5 222.5 41.5c114 0 211.667 -24.167 293 -72.5s141.5 -110.833 180.5 -187.5s58.5 -158 58.5 -244v-129c0 -131.333 -28.167 -247.333 -84.5 -348
s-113.5 -178 -171.5 -232c-55.333 -51.333 -97.666 -86.666 -126.999 -105.999c15.333 -11.333 29.333 -24 42 -38c1.33301 -1.33301 9.5 -10.833 24.5 -28.5s25.833 -30.834 32.5 -39.501l67 -82l-149 -70c-10 8 -30.833 26.667 -62.5 56s-62.167 64 -91.5 104
c-22.667 -13.333 -62.334 -33 -119.001 -59c-29.333 -12.667 -56.833 -22.167 -82.5 -28.5s-52.5 -9.5 -80.5 -9.5c-87.333 0 -153.5 17.667 -198.5 53s-74.167 71 -87.5 107c-6 18 -10.5 33.167 -13.5 45.5s-5.16699 23.833 -6.5 34.5c0 90.667 23.833 158 71.5 202
s107.834 66 180.501 66c37.333 0 74.333 -5.33301 111 -16c20 -5.33301 37.833 -11 53.5 -17s32.167 -14 49.5 -24c32 -16.667 61 -38 87 -64c13.333 -12.667 24.833 -25.334 34.5 -38.001s18.834 -27 27.501 -43c21.333 13.333 54.833 42.333 100.5 87
s90.834 111.334 135.501 200.001s67 191.667 67 309v90c0 74.667 -13.5 136.334 -40.5 185.001s-59.667 86 -98 112s-76.666 44.333 -114.999 55s-67.833 16 -88.5 16c-18 0 -31.333 -0.666992 -40 -2s-23 -4.33301 -43 -9c-33.333 -6 -68.666 -20.333 -105.999 -43
s-69.5 -56 -96.5 -100s-40.5 -100.333 -40.5 -169v-125zM280.995 211c0 -37.333 29.9971 -62.668 89.9971 -76.001l37 -4c36 0 68 8.83301 96 26.5s49 32.834 63 45.501c-13.333 20 -38.166 46.167 -74.499 78.5s-78.166 48.5 -125.499 48.5
c-31.333 0 -53.666 -10 -66.999 -30c-12.667 -21.333 -19 -51 -19 -89z" />
    <glyph glyph-name="Oacute" unicode="&#xd3;" horiz-adv-x="1122" 
d="M967 565l-0.00292969 -565.003h-158v129c-11.333 -26.667 -38.833 -59.667 -82.5 -99s-108.5 -59 -194.5 -59c-84.667 0 -161.167 22.833 -229.5 68.5s-122.166 111.334 -161.499 197.001s-59 184.167 -59 295.5c0 37.333 8.66699 84 26 140
c9.33301 28.667 22.5 58.5 39.5 89.5s38.5 64.167 64.5 99.5c50.667 69.333 121.334 136 212.001 200c114 82.667 180.333 140 199 172c0 7.33301 -28.5 14 -85.5 20s-102.833 13 -137.5 21s-54 23.667 -58 47c0 38 10.5 74.5 31.5 109.5s38.5 60.5 52.5 76.5h147
c-4.66699 -14 -13 -32 -25 -54s-18 -36.667 -18 -44c0 -12.667 10.333 -23 31 -31c18.667 -5.33301 57 -10.666 115 -15.999c26 0 49 -2 69 -6s35.333 -8.66699 46 -14c20 -10 30 -34 30 -72c0 -31.333 -23 -69 -69 -113c-43.333 -39.333 -81.666 -72 -114.999 -98
c102 -20 182.333 -74.667 241 -164c29.333 -44 51.5 -93.667 66.5 -149s22.5 -115.666 22.5 -180.999zM548.997 114.997c86 0 152.333 37.668 199 113.001c23.333 37.333 41.333 81.166 54 131.499s19 106.5 19 168.5c0 56.667 -6.5 109.334 -19.5 158.001
s-31.5 90.667 -55.5 126c-22 36 -49.667 64.333 -83 85s-68.666 31 -105.999 31c-7.33301 0 -15.333 -0.166992 -24 -0.5s-19.667 -2.83301 -33 -7.5c-52 -14 -104.333 -58.333 -157 -133s-79 -162.334 -79 -263.001c0 -117.333 24.667 -214.833 74 -292.5
s119.666 -116.5 210.999 -116.5z" />
    <glyph glyph-name="Ocircumflex" unicode="&#xd4;" horiz-adv-x="1362" 
d="M1331 0l-393.001 0.000976562v1059c0 116 -28.667 191.333 -86 226s-125.666 52 -204.999 52c-49.333 0 -93.833 -5.33301 -133.5 -16s-75.834 -36.5 -108.501 -77.5s-49 -102.5 -49 -184.5v-418h-194v430c0 71.333 17 139.166 51 203.499s87.833 116.5 161.5 156.5
s164.5 60 272.5 60c107.333 0 197.833 -20 271.5 -60s127.834 -92 162.501 -156s52 -132 52 -204v-917h198v-154z" />
    <glyph glyph-name="Otilde" unicode="&#xd5;" horiz-adv-x="1178" 
d="M1161 -428l-379.001 -0.000976562v1139c0 126.667 -55.333 190 -166 190c-70.667 0 -127.5 -16 -170.5 -48s-73.667 -72.5 -92 -121.5s-27.5 -101.167 -27.5 -156.5v-575h-176v1034h169v-170l50 64c22 28 44 50.333 66 67s51.667 30.834 89 42.501
s81.666 17.5 132.999 17.5s95.833 -7.66699 133.5 -23s68.834 -36.5 93.501 -63.5s42.834 -55.667 54.501 -86s17.5 -61.833 17.5 -94.5v-1087h205v-129z" />
    <glyph glyph-name="Odieresis" unicode="&#xd6;" horiz-adv-x="1362" 
d="M1012 125c-14 -24 -45.168 -54.166 -93.501 -90.499s-117.5 -54.5 -207.5 -54.5c-109.333 0 -200.833 20 -274.5 60s-127.667 91.667 -162 155s-51.5 131.333 -51.5 204v525h-196v153h202c0 72 17.333 139.333 52 202s89.5 113.334 164.5 152.001s166.167 58 273.5 58
h393v-154h-393c-56 0 -103.667 -5.83301 -143 -17.5s-69.666 -28.834 -90.999 -51.501c-40.667 -44.667 -61 -93.334 -61 -146.001l1 -27l3 -16h283c322 0 483 -140 483 -420v-657h-182v125zM710.999 924.001l-293 0.00195312v-510c0 -81.333 15.5 -142.833 46.5 -184.5
s67.5 -68.5 109.5 -80.5c44 -10.667 89.667 -16 137 -16c34 0 72 6.66699 114 20s81.5 42.666 118.5 87.999s55.5 109.666 55.5 192.999v199c0 80.667 -13.5 142.667 -40.5 186s-59.5 72.333 -97.5 87c-18 6.66699 -36.167 12 -54.5 16s-35.833 6 -52.5 6
c-12.667 0 -22 -0.666992 -28 -2c-8 0 -13 -0.666992 -15 -2z" />
    <glyph glyph-name="multiply" unicode="&#xd7;" horiz-adv-x="1130" 
d="M373 1139c19.333 24 53.6641 59.835 102.997 107.502s121 97.667 215 150s199.667 84.5 317 96.5l67 -139c-82 0 -163.333 -18.833 -244 -56.5s-144.5 -75 -191.5 -112s-80.5 -65.5 -100.5 -85.5c64.667 -16 124.834 -40.833 180.501 -74.5s104.167 -74.167 145.5 -121.5
c39.333 -45.333 70.5 -97.5 93.5 -156.5s34.5 -119.833 34.5 -182.5v-565h-168v139c-11.333 -28.667 -38.333 -63.834 -81 -105.501s-107.667 -62.5 -195 -62.5c-62.667 0 -121.667 11.167 -177 33.5s-103.666 57 -144.999 104s-73.166 105.333 -95.499 175
s-33.5 152.5 -33.5 248.5c0 32 3.66699 72.5 11 121.5s24 106.167 50 171.5s65 127 117 185l-239 30l65 136c28.667 0 55 -0.833008 79 -2.5s58 -6.33398 102 -14.001s74 -14.5 90 -20.5zM564.998 115.002c56.667 0 103.834 17.668 141.501 53.001s66.167 85.833 85.5 151.5
s29 138.167 29 217.5c0 53.333 -7.33301 101.166 -22 143.499s-36 79.5 -64 111.5c-53.333 62 -107.666 104.667 -162.999 128c-50.667 20.667 -91 34.334 -121 41.001c-22.667 -24.667 -46.334 -57.167 -71.001 -97.5s-47.334 -90.833 -68.001 -151.5
s-31 -123.334 -31 -188.001c0 -117.333 24.667 -214.833 74 -292.5s119.333 -116.5 210 -116.5z" />
    <glyph glyph-name="Oslash" unicode="&#xd8;" horiz-adv-x="1376" 
d="M915 1483l392 -0.00195312v-152h-197v-936c0 -52.667 -9.33301 -103.834 -28 -153.501s-47.834 -94.667 -87.501 -135s-91 -72.333 -154 -96s-135.5 -35.5 -217.5 -35.5c-82.667 0 -154.667 11.833 -216 35.5s-112 55.334 -152 95.001s-70 84.834 -90 135.501
c-9.33301 26.667 -16.333 52 -21 76s-7 50 -7 78v1086h195v-1071c0 -81.333 16 -142.666 48 -183.999s68.833 -67.833 110.5 -79.5s85.834 -17.5 132.501 -17.5c50 0 95.5 5.5 136.5 16.5s77.167 37.667 108.5 80s47 103.833 47 184.5v1073z" />
    <glyph glyph-name="Ugrave" unicode="&#xd9;" horiz-adv-x="1114" 
d="M786 438l0.00195312 416.002c0 40 -11.333 74 -34 102s-58.5 63.667 -107.5 107s-85.333 82.666 -109 117.999s-35.5 78.666 -35.5 129.999c0 47.333 12.833 84 38.5 110s60.167 43.167 103.5 51.5s94.333 12.5 153 12.5h85c6.66699 0 18 -0.333008 34 -1
s28.667 -1 38 -1v-140c-10 0 -26.167 0.333008 -48.5 1s-39.833 1 -52.5 1l-71 1c-36 0 -62.333 -3 -79 -9s-27 -19 -31 -39c0 -26.667 18 -58.667 54 -96l105 -101c33.333 -30.667 63.666 -67.167 90.999 -109.5s41 -90.166 41 -143.499v-848h-173v170l-48 -62
c-19.333 -24.667 -41.666 -47.334 -66.999 -68.001c-24 -18 -54.833 -32.5 -92.5 -43.5s-80.834 -16.5 -129.501 -16.5c-67.333 0 -123.333 12.833 -168 38.5s-78 57.5 -100 95.5c-10.667 20 -18.834 39.833 -24.501 59.5s-8.5 40.5 -8.5 62.5v798h176v-721
c0 -64 13.667 -110 41 -138s68 -42 122 -42c72.667 0 131 14.5 175 43.5s75.333 66.667 94 113s28 95.833 28 148.5z" />
    <glyph glyph-name="Uacute" unicode="&#xda;" horiz-adv-x="1276" 
d="M358 1139l-196 0.000976562c0 55.333 14.5 109.833 43.5 163.5s77.333 98.5 145 134.5s155.5 54 263.5 54c85.333 0 158.666 -10.833 219.999 -32.5s110.5 -50.167 147.5 -85.5s64.333 -76.166 82 -122.499s26.5 -93.833 26.5 -142.5
c0 -107.333 -21.833 -184.5 -65.5 -231.5s-80.167 -75.5 -109.5 -85.5c16 -3.33301 40 -14.166 72 -32.499s64.667 -55.833 98 -112.5s50 -133.334 50 -230.001c0 -82 -20.333 -156.333 -61 -223s-100.667 -119.667 -180 -159c-38.667 -19.333 -81.667 -34 -129 -44
s-99 -15 -155 -15c-82 0 -155 11.833 -219 35.5s-117.333 55.667 -160 96s-75.167 85.833 -97.5 136.5s-33.5 102 -33.5 154h191c0 -98 40.667 -166 122 -204s149 -59.333 203 -64c54.667 0 122.667 19.167 204 57.5s122 118.833 122 241.5
c0 119.333 -35.167 198 -105.5 236s-139.5 57 -207.5 57h-475v158h473c68 0 130.333 15.667 187 47s85 94 85 188c0 90.667 -33.333 150.5 -100 179.5s-129 43.5 -187 43.5c-11.333 0 -22.666 -0.666992 -33.999 -2s-31.833 -4.83301 -61.5 -10.5
s-63.5 -23.334 -101.5 -53.001s-57 -73.834 -57 -132.501z" />
    <glyph glyph-name="Ucircumflex" unicode="&#xdb;" horiz-adv-x="584" 
d="M-10 -428v131h39c46.667 0 92 14 136 42s66 84.333 66 169v1120h177v-1110c0 -78 -17.333 -143.5 -52 -196.5s-79.5 -92.167 -134.5 -117.5s-111.833 -38 -170.5 -38h-61z" />
    <glyph glyph-name="Udieresis" unicode="&#xdc;" horiz-adv-x="1313" 
d="M-10 1479l391 0.000976562v-1069c0 -81.333 15.5 -142.833 46.5 -184.5s67.5 -68.5 109.5 -80.5c44 -10.667 89.667 -16 137 -16c48 0 92.167 5.33301 132.5 16s76.833 37.167 109.5 79.5s49 104.166 49 185.499v417h194v-432c0 -52.667 -9.33301 -103.834 -28 -153.501
s-47.834 -94.667 -87.501 -135s-91 -72.333 -154 -96s-134.833 -35.5 -215.5 -35.5c-109.333 0 -200.666 20 -273.999 60s-127.333 91.833 -162 155.5s-52 131.834 -52 204.501v932h-196v152z" />
    <glyph glyph-name="Yacute" unicode="&#xdd;" horiz-adv-x="1114" 
d="M956 0l-167.999 0.00195312v170l-48 -62c-19.333 -24.667 -41.666 -47.334 -66.999 -68.001c-24 -18 -54.833 -32.5 -92.5 -43.5s-80.834 -16.5 -129.501 -16.5c-68 0 -124.333 12.833 -169 38.5s-77.834 57.834 -99.501 96.501s-32.5 79 -32.5 121v897
c0 61.333 10.5 113.666 31.5 156.999s49.5 79.5 85.5 108.5s74.333 50.333 115 64s82.667 20.5 126 20.5h348v-140h-324c-44.667 0 -90.167 -14.667 -136.5 -44s-69.5 -89 -69.5 -179v-807c0 -63.333 13.167 -109.166 39.5 -137.499s67.5 -42.5 123.5 -42.5
c72 0 129.5 13.667 172.5 41s73.5 63.166 91.5 107.499s27 93.166 27 146.499v606h176v-1034z" />
    <glyph glyph-name="Thorn" unicode="&#xde;" horiz-adv-x="1352" 
d="M236 1513l864 -198v-170l-244 55l-26 2l-46 2c-32.667 0 -65.167 -3 -97.5 -9s-65.833 -15.667 -100.5 -29c-66.667 -24 -126 -75.167 -178 -153.5s-78 -188.5 -78 -330.5v-186c0 -96.667 21 -172.5 63 -227.5s89.667 -92.167 143 -111.5
c27.333 -9.33301 51.166 -16.333 71.499 -21s39.166 -7 56.499 -7c65.333 0 135.833 23 211.5 69s113.5 131 113.5 255v131h197v-144c0 -52.667 -11.167 -105.834 -33.5 -159.501s-55.666 -104 -99.999 -151s-99.666 -84.5 -165.999 -112.5s-140.5 -42 -222.5 -42
s-156.667 14 -224 42s-124 65.333 -170 112s-81 97.334 -105 152.001s-36 107.667 -36 159v242c0 140.667 29 255.5 87 344.5s116 151 174 186s102 57.5 132 67.5l-286 61v172z" />
    <glyph glyph-name="germandbls" unicode="&#xdf;" horiz-adv-x="934" 
d="M248 770l-87.9971 119.001c43.333 53.333 90.333 92.5 141 117.5s102.667 37.5 156 37.5c60.667 0 117.5 -15.167 170.5 -45.5s95.5 -72.833 127.5 -127.5s48 -114.334 48 -179.001c0 -85.333 -27.333 -169.333 -82 -252l-58 -86l-69 -99l-81 -114
c-84 -118 -142 -203 -174 -255s-48 -94 -48 -126c6 -42 71.333 -63 196 -63h26c4 0 10.333 0.333008 19 1s15 1 19 1h19c6.66699 0 14 0.666992 22 2h213v-129h-260c-92.667 0 -163.334 2.33301 -212.001 7c-22.667 0 -44.334 2 -65.001 6s-40.667 9.66699 -60 17
c-30.667 10 -53.5 25.5 -68.5 46.5s-25.167 50.833 -30.5 89.5c0 36 10.667 74.667 32 116s44.666 81 69.999 119l172 244l85 121l81 117l76 114c16 26 24 56 24 90c0 35.333 -9 70.5 -27 105.5s-42.5 63.833 -73.5 86.5s-65.167 34 -102.5 34
c-69.333 0 -135.333 -38.333 -198 -115z" />
    <glyph glyph-name="agrave" unicode="&#xe0;" horiz-adv-x="1272" 
d="M1102 0h-195.001v1059c0 116 -29.5 191.333 -88.5 226s-126.5 52 -202.5 52c-80 0 -148.667 -17.167 -206 -51.5s-86 -109.833 -86 -226.5v-1059h-195v1071c0 72 16.833 139.5 50.5 202.5s87.667 115 162 156s165.833 61.5 274.5 61.5s199.834 -20.167 273.501 -60.5
s127.5 -92.333 161.5 -156s51 -131.5 51 -203.5v-1071z" />
    <glyph glyph-name="aacute" unicode="&#xe1;" horiz-adv-x="1116" 
d="M326 553l-0.00195312 -553.001h-176v1034h169v-160c14 18.667 29 37.667 45 57c13.333 16.667 25.333 30.334 36 41.001c20.667 22 52.5 41.333 95.5 58s96.833 25 161.5 25c51.333 0 95.833 -7.66699 133.5 -23s68.834 -36.5 93.501 -63.5s42.834 -55.667 54.501 -86
s17.5 -61.833 17.5 -94.5v-788h-176v711c0 126.667 -54.667 190 -164 190c-102.667 0 -176.667 -35.5 -222 -106.5s-68 -151.5 -68 -241.5z" />
    <glyph glyph-name="acircumflex" unicode="&#xe2;" horiz-adv-x="1362" 
d="M999 -29l-823.001 215.002v174l268 -75c12.667 0 27.334 1 44.001 3s38.667 5.66699 66 11c50.667 9.33301 110.834 31.5 180.501 66.5s130.5 89.833 182.5 164.5s78 172.334 78 293.001v174c0 93.333 -21.833 165.333 -65.5 216s-91.167 84 -142.5 100
s-95.333 24 -132 24c-34 0 -75.5 -7.33301 -124.5 -22s-94.667 -46.334 -137 -95.001s-63.5 -117.334 -63.5 -206.001v-131l-195 -2v147c0 52 11.5 105.667 34.5 161s56.333 105.666 100 150.999s98 81.833 163 109.5s139.167 41.5 222.5 41.5c85.333 0 161 -13.667 227 -41
s122 -64 168 -110s81 -96.333 105 -151c11.333 -26 20.333 -52.833 27 -80.5s10 -54.5 10 -80.5l2 -237c0 -107.333 -23.667 -199.333 -71 -276s-103 -136 -167 -178c-30 -20 -59 -37.167 -87 -51.5s-54.333 -25.833 -79 -34.5c-48.667 -16 -83.334 -26 -104.001 -30
l309 -82z" />
    <glyph glyph-name="atilde" unicode="&#xe3;" horiz-adv-x="799" 
d="M543 -299l187.998 -0.000976562v-129h-219c-93.333 0 -163.666 2.33301 -210.999 7c-22.667 0 -44.167 2 -64.5 6s-39.833 9.66699 -58.5 17c-30.667 10 -53.667 25.333 -69 46s-26.333 50.667 -33 90l-4 39c0 25.333 6 51.666 18 78.999
c6.66699 14 14.667 28.833 24 44.5s22 34.834 38 57.501l122 169l162 229c8 13.333 12.333 25 13 35c0 20.667 -12.167 42.834 -36.5 66.501s-56.5 49.5 -96.5 77.5s-72.167 53.167 -96.5 75.5s-39.5 45.5 -45.5 69.5c0 34 30 94.667 90 182l81 113.5l69 91.5l176 -39
c-40 -44.667 -88.333 -102.667 -145 -174s-85 -121 -85 -149c0 -6.66699 1.66699 -11 5 -13l124 -110c53.333 -44.667 90 -79.167 110 -103.5s30 -49.5 30 -75.5c0 -29.333 -15.667 -66 -47 -110l-141 -193l-105 -143c-30.667 -44 -52 -78.5 -64 -103.5
s-18 -47.167 -18 -66.5l4 -27c11.333 -42 75.666 -63 192.999 -63h23c4.66699 0 10.834 0.333008 18.501 1s12.834 1 15.501 1h16c6 0 12.333 0.666992 19 2z" />
    <glyph glyph-name="adieresis" unicode="&#xe4;" horiz-adv-x="1640" 
d="M874 1337l0.000976562 -904.998h-194v905h-55c-72 0 -130.667 -5.16699 -176 -15.5s-83.333 -36 -114 -77s-46 -102.833 -46 -185.5v-240h-195v252c0 71.333 17 139.166 51 203.499s88.167 116.5 162.5 156.5s165.166 60 272.499 60h391
c109.333 0 200.5 -20.167 273.5 -60.5s126.833 -92.333 161.5 -156s52 -131.5 52 -203.5v-1071h-194v1059c0 81.333 -15.167 142.166 -45.5 182.499s-69 66.333 -116 78s-101.833 17.5 -164.5 17.5h-64z" />
    <glyph glyph-name="aring" unicode="&#xe5;" horiz-adv-x="1649" 
d="M735 1034l182.997 0.00195312v-712c0 -62.667 18 -112.5 54 -149.5s80 -55.5 132 -55.5c33.333 0 68 10.667 104 32s65.5 51.166 88.5 89.499s34.5 79.5 34.5 123.5v672l185 -2v-1460h-185v575c-16.667 -40 -49.5 -77.833 -98.5 -113.5s-105.5 -53.5 -169.5 -53.5
c-54 0 -98.167 6.16699 -132.5 18.5s-61.5 27.833 -81.5 46.5c-6.66699 6.66699 -15.167 16.5 -25.5 29.5s-19.666 25.667 -27.999 38l-20.5 29.5c-7.33301 9.33301 -13 16 -17 20c-20.667 -40 -58.167 -80.333 -112.5 -121s-113.166 -61 -176.499 -61
c-74.667 0 -136.5 13.167 -185.5 39.5s-85.333 59.833 -109 100.5s-35.5 82 -35.5 124v790h174v-712c0 -42 9 -78.333 27 -109s41.833 -54.334 71.5 -71.001s61.834 -25 96.501 -25c34 0 68.833 10.5 104.5 31.5s65 50.667 88 89s34.5 79.833 34.5 124.5v672z" />
    <glyph glyph-name="ae" unicode="&#xe6;" horiz-adv-x="1382" 
d="M1221 958c0 -94.667 -16.1709 -188.834 -48.5039 -282.501s-76.666 -176 -132.999 -247s-120.833 -124.5 -193.5 -160.5h151c82 0 143.667 -17.167 185 -51.5s68 -72.5 80 -114.5s18 -79.333 18 -112h-174c0 77.333 -47 116 -141 116h-637v-110h-183v381h183v-113h131
c118 0 209.333 15.5 274 46.5s104.334 74.833 119.001 131.5c-16 115.333 -63.667 204.333 -143 267s-164.666 103.834 -255.999 123.501s-174 29.5 -248 29.5l-36 -1l-13 -1l1 24l-3 144c0 71.333 20.833 142.833 62.5 214.5s102.5 131.167 182.5 178.5
c40 22.667 83.667 40 131 52s98 18 152 18c84.667 0 160.334 -13.5 227.001 -40.5s123 -65 169 -114s81 -105.833 105 -170.5c12.667 -34.667 22.167 -68.5 28.5 -101.5s9.5 -68.5 9.5 -106.5zM962.996 561c23.333 45.333 41.335 96 54.002 152s19 116 19 180v57
c0 58 -14 116.5 -42 175.5s-69.667 107.333 -125 145s-121 56.5 -197 56.5c-29.333 0 -57.5 -3.66699 -84.5 -11s-54.833 -18.333 -83.5 -33c-52 -26 -93.667 -63 -125 -111s-47 -102.667 -47 -164c31.333 0 89.666 -10.667 174.999 -32
c79.333 -18 165.666 -60.5 258.999 -127.5s159 -162.833 197 -287.5z" />
    <glyph glyph-name="ccedilla" unicode="&#xe7;" horiz-adv-x="1042" 
d="M147 1008c121.333 54.667 235.331 82 341.998 82c92 0 172.5 -19.5 241.5 -58.5s122.5 -92.833 160.5 -161.5s57 -145.667 57 -231c0 -48.667 -6.16699 -98 -18.5 -148s-31.5 -100.333 -57.5 -151s-60 -102.167 -102 -154.5s-91 -101.833 -147 -148.5l-114 -91
c-44.667 -37.333 -82.334 -71.166 -113.001 -101.499s-46 -54.833 -46 -73.5c0 -49.333 76.667 -74 230 -74h23c4.66699 0 10.834 0.333008 18.501 1s12.834 1 15.501 1h16c6 0 12.333 0.666992 19 2h174v-129h-205h-96c-90.667 0 -158.667 2.16699 -204 6.5
s-81.666 15.833 -108.999 34.5c-27.333 17.333 -47.333 44.666 -60 81.999l-4 24c0 27.333 10.833 56 32.5 86s53.5 67.5 95.5 112.5s69.667 78.5 83 100.5c19.333 30.667 29 60 29 88c0 58 -30 108 -90 150s-117 70 -171 84v668zM517.998 109
c15.333 12.667 43.001 40.665 83.001 83.998c36 39.333 73.5 96.833 112.5 172.5s58.5 156.5 58.5 242.5c0 42.667 -5.83301 83.834 -17.5 123.501s-29 74.834 -52 105.501s-53.833 55.5 -92.5 74.5s-82.334 28.5 -131.001 28.5c-25.333 0 -51.333 -2.33301 -78 -7
s-54 -12 -82 -22v-479c29.333 -14.667 58.833 -35.5 88.5 -62.5s55.5 -62.167 77.5 -105.5s33 -95 33 -155z" />
    <glyph glyph-name="egrave" unicode="&#xe8;" horiz-adv-x="1352" 
d="M1102 1071l-0.000976562 -524h217v-154h-217v-393h-195v1059c0 116 -29.5 191.333 -88.5 226s-126.5 52 -202.5 52c-80 0 -148.667 -17.167 -206 -51.5s-86 -109.833 -86 -226.5v-1059h-195v1071c0 72 16.833 139.5 50.5 202.5s87.667 115 162 156
s165.833 61.5 274.5 61.5s199.834 -20.167 273.501 -60.5s127.5 -92.333 161.5 -156s51 -131.5 51 -203.5z" />
    <glyph glyph-name="eacute" unicode="&#xe9;" horiz-adv-x="1108" 
d="M975 709c0 -108.667 -20.002 -204.666 -60.002 -287.999s-79.5 -146.666 -118.5 -189.999s-68.833 -73.333 -89.5 -90h282v-141h-434v102c40.667 39.333 91.667 108.666 153 207.999c31.333 50.667 55 105 71 163s24 121 24 189c0 44 -8.16699 85.333 -24.5 124
s-42.833 70.334 -79.5 95.001c-17.333 12 -38 21.167 -62 27.5s-50 9.5 -78 9.5c-27.333 0 -54.166 -5.83301 -80.499 -17.5s-52.5 -28.834 -78.5 -51.501c-49.333 -44 -74 -99.667 -74 -167v-682h-176v1036h174v-125c18 37.333 52 70.666 102 99.999
c25.333 14 53 25.167 83 33.5s60.333 12.5 91 12.5c75.333 0 141.333 -16 198 -48s100.334 -75 131.001 -129s46 -111 46 -171z" />
    <glyph glyph-name="ecircumflex" unicode="&#xea;" horiz-adv-x="1272" 
d="M909 1481h195v-1078c0 -72.667 -17.167 -140.5 -51.5 -203.5s-88.166 -114.667 -161.499 -155s-164.333 -60.5 -273 -60.5c-110 0 -201.167 20 -273.5 60s-126 92.333 -161 157s-52.5 133.667 -52.5 207v1073h195v-1063c0 -116.667 28.667 -192.667 86 -228
s126 -53 206 -53c77.333 0 145.166 17.667 203.499 53s87.5 111.333 87.5 228v1063z" />
    <glyph glyph-name="edieresis" unicode="&#xeb;" horiz-adv-x="1116" 
d="M780 426v608h176v-1034h-170v160c-35.333 -46.667 -62.5 -79.5 -81.5 -98.5s-50 -37.333 -93 -55s-97.167 -26.5 -162.5 -26.5c-68 0 -124.167 12.833 -168.5 38.5s-77.5 57.834 -99.5 96.501c-20.667 40 -31 80.333 -31 121v798h176v-721
c0 -62.667 13 -108.334 39 -137.001s66.667 -43 122 -43c105.333 0 180.5 28 225.5 84s67.5 125.667 67.5 209z" />
    <glyph glyph-name="igrave" unicode="&#xec;" horiz-adv-x="1292" 
d="M1061 1481v-1327h203v-154h-398v420c-12 -14 -41.5 -32.833 -88.5 -56.5s-115.167 -35.5 -204.5 -35.5c-108 0 -198.5 19.833 -271.5 59.5s-126.833 91.667 -161.5 156s-52 132.5 -52 204.5v284h195v-270c0 -81.333 16 -142.5 48 -183.5s68.5 -67.5 109.5 -79.5
s85.167 -18 132.5 -18c57.333 0 120.5 11 189.5 33s103.5 60.333 103.5 115v852h195z" />
    <glyph glyph-name="iacute" unicode="&#xed;" horiz-adv-x="1167" 
d="M956 1481v-1780h199v-129h-369v588c-35.333 -46.667 -62.5 -79.5 -81.5 -98.5s-50 -37.333 -93 -55s-97.167 -26.5 -162.5 -26.5c-68 0 -124.167 12.833 -168.5 38.5s-77.5 57.834 -99.5 96.501c-20.667 40 -31 80.333 -31 121v798h176v-721
c0 -62.667 13 -108.334 39 -137.001s66.667 -43 122 -43c105.333 0 180.5 28 225.5 84s67.5 125.667 67.5 209v1055h176z" />
    <glyph glyph-name="icircumflex" unicode="&#xee;" horiz-adv-x="1380" 
d="M688 129c76.667 0 150.166 13.6641 220.499 40.9971s105.5 90 105.5 188c0 56 -20.5 104.5 -61.5 145.5s-88.5 74.333 -142.5 100s-136.333 61.5 -247 107.5c-132 54 -233.833 107.667 -305.5 161s-107.5 121 -107.5 203c0 122 43.667 221.5 131 298.5
s213.333 115.5 378 115.5c84.667 0 159.667 -10 225 -30s119.333 -48 162 -84s75 -76.667 97 -122s33 -95 33 -149v-129l-195 -4v119c0 72.667 -20.5 126.834 -61.5 162.501s-85.333 58.334 -133 68.001s-90.167 14.5 -127.5 14.5c-82.667 0 -155.834 -13 -219.501 -39
s-95.5 -84 -95.5 -174c0 -36 14.5 -68.667 43.5 -98s67.167 -56.333 114.5 -81c40 -19.333 102 -46.666 186 -81.999c110.667 -45.333 200.834 -86 270.501 -122s129.667 -82.333 180 -139s75.5 -124.334 75.5 -203.001c0 -66 -13 -125.167 -39 -177.5
s-61.667 -96.333 -107 -132s-101.666 -63.834 -168.999 -84.501c-34 -9.33301 -67.833 -16.333 -101.5 -21s-70.167 -7 -109.5 -7c-110 0 -208.333 19.5 -295 58.5s-154 90.667 -202 155s-72 129.833 -72 196.5v133h194v-119c0 -69.333 24.833 -124.166 74.5 -164.499
s104.167 -68.166 163.5 -83.499c28 -6.66699 54 -12 78 -16s43.667 -6 59 -6z" />
    <glyph glyph-name="idieresis" unicode="&#xef;" horiz-adv-x="1679" 
d="M918 1034l0.00292969 -147c20.667 41.333 54.667 79.666 102 114.999s102.666 53 165.999 53c73.333 0 134.666 -13.167 183.999 -39.5s86 -59.833 110 -100.5s36 -82 36 -124v-791l-181 -2v715c0 62 -17.833 108.833 -53.5 140.5s-80.5 47.5 -134.5 47.5
c-34 0 -68.833 -11.833 -104.5 -35.5s-65.334 -56 -89.001 -97s-35.5 -84.167 -35.5 -129.5v-639h-181l-1 91c0 17.333 -0.166992 29.333 -0.5 36s-1.16602 12.667 -2.49902 18c-22 -42 -55.5 -80 -100.5 -114s-99.5 -51 -163.5 -51c-74.667 0 -136.5 13.167 -185.5 39.5
s-85.333 59.833 -109 100.5s-35.5 82 -35.5 124v790h174v-712c0 -61.333 18.667 -108.166 56 -140.499s83.666 -48.5 138.999 -48.5c35.333 0 71 9.5 107 28.5s65 45.833 87 80.5s33 74.667 33 120v672h183z" />
    <glyph glyph-name="eth" unicode="&#xf0;" horiz-adv-x="1292" 
d="M346 1059l-0.00195312 -1059h-194v1071c0 72 16.833 139.5 50.5 202.5s87.667 115 162 156s165.833 61.5 274.5 61.5s199.334 -20 272.001 -60s126.334 -92 161.001 -156s52 -132 52 -204v-434h-196v422c0 115.333 -29 190.666 -87 225.999
c-30 17.333 -61.167 30.333 -93.5 39s-68.5 13 -108.5 13c-80.667 0 -149.667 -17.167 -207 -51.5s-86 -109.833 -86 -226.5z" />
    <glyph glyph-name="ntilde" unicode="&#xf1;" horiz-adv-x="1116" 
d="M326 553l-0.00195312 -981.001h-176v1462h169v-160c14 18.667 29 37.667 45 57c13.333 16.667 25.333 30.334 36 41.001c20.667 22 52.5 41.333 95.5 58s96.833 25 161.5 25c51.333 0 95.833 -7.66699 133.5 -23s68.834 -36.5 93.501 -63.5s42.834 -55.667 54.501 -86
s17.5 -61.833 17.5 -94.5v-788h-176v711c0 126.667 -54.667 190 -164 190c-102.667 0 -176.667 -35.5 -222 -106.5s-68 -151.5 -68 -241.5z" />
    <glyph glyph-name="ograve" unicode="&#xf2;" horiz-adv-x="1323" 
d="M358 627l-217 1.99805c18.667 61.333 49.334 107.333 92.001 138s77 50.667 103 60c-28.667 10 -64.834 36.667 -108.501 80s-65.5 112.333 -65.5 207c0 52.667 10.167 106.334 30.5 161.001s66.833 104.334 139.5 149.001s175 67 307 67
c166.667 0 288.167 -33.667 364.5 -101s114.5 -159.333 114.5 -276c0 -64 -13.333 -117.333 -40 -160c-13.333 -21.333 -26.333 -39.333 -39 -54s-26.334 -26.667 -41.001 -36c-26 -16.667 -46 -27.667 -60 -33c9.33301 -2 24.333 -9 45 -21
c19.333 -9.33301 43.666 -29 72.999 -59s54.833 -71.5 76.5 -124.5s32.5 -117.833 32.5 -194.5c0 -80 -20.167 -155.5 -60.5 -226.5s-100.166 -127.167 -179.499 -168.5s-174 -62 -284 -62c-85.333 0 -160.333 11.5 -225 34.5s-119 55.167 -163 96.5
s-76.667 88.833 -98 142.5s-32 109.5 -32 167.5h190c0 -77.333 24 -137.5 72 -180.5s96.667 -71.5 146 -85.5c30 -7.33301 53 -12.666 69 -15.999s29.667 -5 41 -5c32.667 0 73.667 6 123 18s96.5 40.5 141.5 85.5s67.5 111.5 67.5 199.5c0 85.333 -20 150.666 -60 195.999
s-84.667 74.333 -134 87c-25.333 6.66699 -48.666 11.667 -69.999 15s-43.333 5 -66 5c-142 0 -237 -36 -285 -108zM348 1114c0 -49.333 15 -91.999 45 -127.999c29.333 -32.667 66.333 -58.334 111 -77.001c44 -16 89 -24 135 -24c72.667 0 138.667 17.833 198 53.5
s89 94.167 89 175.5c0 64.667 -19.333 113.667 -58 147s-80.167 54.333 -124.5 63s-77.833 13 -100.5 13c-12 0 -25.167 -1 -39.5 -3s-33.833 -5.66699 -58.5 -11c-42 -8 -85.333 -28.667 -130 -62s-67 -82.333 -67 -147z" />
    <glyph glyph-name="oacute" unicode="&#xf3;" horiz-adv-x="1159" 
d="M197 -229l149.003 81.9961c0 -62 24 -103.667 72 -125c24.667 -10 48.667 -17.667 72 -23s47 -8 71 -8h70c34 2.66699 76.667 20.834 128 54.501s77 98.834 77 195.501v182c-28 -48 -68.5 -86.333 -121.5 -115s-113.833 -43 -182.5 -43c-88.667 0 -165.5 26 -230.5 78
s-114.833 119.333 -149.5 202c-16 40 -28.667 81.5 -38 124.5s-14 85.167 -14 126.5c0 114.667 20.333 214 61 298s96.667 148.5 168 193.5s148.666 67.5 231.999 67.5c47.333 0 89.166 -7 125.499 -21s65.166 -30 86.499 -48c21.333 -16.667 37.5 -32.5 48.5 -47.5
s17.833 -25.5 20.5 -31.5v121h168v-1079c0 -77.333 -18.667 -145.166 -56 -203.499s-84.5 -103.166 -141.5 -134.499s-110.167 -47 -159.5 -47h-125c-58 0 -122.167 13 -192.5 39s-116.5 80 -138.5 162zM836.003 505.996c0 39.333 -2.66602 77.499 -7.99902 114.499
s-12.666 71.167 -21.999 102.5c-18 62 -46.333 110.333 -85 145s-86.334 52 -143.001 52c-60.667 0 -113.334 -18.167 -158.001 -54.5s-79 -85.5 -103 -147.5c-10.667 -30 -19 -62.667 -25 -98s-9 -72 -9 -110c0 -112 29 -205.833 87 -281.5s130.667 -113.5 218 -113.5
c42.667 0 82.667 15.667 120 47s68 77.333 92 138s36 129.334 36 206.001z" />
    <glyph glyph-name="ocircumflex" unicode="&#xf4;" horiz-adv-x="889" 
d="M156 1481h194v-449h428v-164h-428v-868h-194v1481z" />
    <glyph glyph-name="otilde" unicode="&#xf5;" horiz-adv-x="768" 
d="M330 1034v-907h338v-127h-512v1034h174z" />
    <glyph glyph-name="odieresis" unicode="&#xf6;" horiz-adv-x="1679" 
d="M86 741c0 172.667 46.001 305.997 138.001 399.997s184 155 276 183s161 44 207 48v113h192v-113c22 0 49.167 -3.66699 81.5 -11s73.833 -19 124.5 -35c92.667 -27.333 184.334 -88.166 275.001 -182.499s136 -228.5 136 -402.5
c0 -173.333 -45.5 -307.666 -136.5 -402.999s-182.5 -158.166 -274.5 -188.499s-160.667 -47.5 -206 -51.5v-96h-192v96c-44.667 4 -113.667 21 -207 51c-46.667 15.333 -92.834 38.5 -138.501 69.5s-91.834 70.5 -138.501 118.5c-91.333 95.333 -137 230 -137 404z
M281.001 736.997c0 -48 4.50098 -91.8301 13.501 -131.497s22.833 -76.834 41.5 -111.501c34 -63.333 81.667 -114.333 143 -153s137.333 -66.334 228 -83.001v952c-79.333 -9.33301 -151.333 -33.333 -216 -72s-115.834 -92.334 -153.501 -161.001
s-56.5 -148.667 -56.5 -240zM899.002 258c65.333 12 124.002 30.668 176.002 56.001s97 58 135 98s67 87.167 87 141.5s30 115.5 30 183.5c0 69.333 -10.833 132.666 -32.5 189.999s-51.834 105.833 -90.501 145.5s-83.834 70.5 -135.501 92.5s-108.167 37 -169.5 45v-952z
" />
    <glyph glyph-name="divide" unicode="&#xf7;" horiz-adv-x="1679" 
d="M918 1481l0.00390625 -594c20.667 41.333 54.667 79.666 102 114.999s102.666 53 165.999 53c73.333 0 134.666 -13.167 183.999 -39.5s86 -59.833 110 -100.5s36 -82 36 -124v-791l-181 -2v715c0 62 -17.833 108.833 -53.5 140.5s-80.5 47.5 -134.5 47.5
c-34 0 -68.833 -11.833 -104.5 -35.5s-65.334 -56 -89.001 -97s-35.5 -84.167 -35.5 -129.5v-1067h-181v160l-1 255l-3 158c-22 -42 -55.5 -80 -100.5 -114s-99.5 -51 -163.5 -51c-74.667 0 -136.5 13.167 -185.5 39.5s-85.333 59.833 -109 100.5s-35.5 82 -35.5 124v790
h174v-712c0 -61.333 18.667 -108.166 56 -140.499s83.666 -48.5 138.999 -48.5c35.333 0 71 9.5 107 28.5s65 45.833 87 80.5s33 74.667 33 120v1119h183z" />
    <glyph glyph-name="oslash" unicode="&#xf8;" horiz-adv-x="1307" 
d="M688 563c-90.667 0 -161.998 15.167 -213.998 45.5s-85.667 56.166 -101 77.499v-278h780v-160h-782v-248h-191v248h-178v160h178v663c0 36 4.66699 70 14 102s23.666 66 42.999 102c34 64 87.167 116 159.5 156s162.833 60 271.5 60c84.667 0 157 -12.167 217 -36.5
s108.833 -56.666 146.5 -96.999s66.167 -86.166 85.5 -137.499c9.33301 -26.667 16.333 -52 21 -76s7 -49.667 7 -77c0 -109.333 -18.667 -202.333 -56 -279s-90.833 -133.334 -160.5 -170.001s-149.834 -55 -240.501 -55zM375.002 967c0 -48 17.667 -93.002 53 -135.002
c31.333 -37.333 70.833 -65.166 118.5 -83.499s95.5 -27.5 143.5 -27.5c176 0 264 108.667 264 326c0 114 -33 190.833 -99 230.5s-128.333 59.5 -187 59.5c-31.333 0 -69.833 -7.16699 -115.5 -21.5s-86.667 -41.666 -123 -81.999s-54.5 -97.833 -54.5 -172.5v-94z" />
    <glyph glyph-name="ugrave" unicode="&#xf9;" horiz-adv-x="1204" 
d="M621 1061c90.667 0 170.164 -19.999 238.497 -59.999s122 -99.333 161 -178s58.5 -173.334 58.5 -284.001c0 -62 -9.66699 -121 -29 -177s-48.166 -105.5 -86.499 -148.5s-87 -77.667 -146 -104s-126.167 -39.5 -201.5 -39.5c-55.333 0 -105.166 11.167 -149.499 33.5
s-83.166 55.5 -116.499 99.5v-338h631v-119h-631v-174h-176v174h-205v119h205v1169h164v-133c12 26.667 40.667 60 86 100s111 60 197 60zM611.997 920.001c-86 0 -151.166 -32.668 -195.499 -98.001s-66.5 -153 -66.5 -263c0 -73.333 12 -136.5 36 -189.5
s56.333 -93.667 97 -122s83 -42.5 127 -42.5c53.333 0 97.666 7.83301 132.999 23.5s64.333 38.667 87 69s39.5 67.833 50.5 112.5s16.5 94.334 16.5 149.001c0 77.333 -8.83301 142.5 -26.5 195.5s-47.5 93.833 -89.5 122.5s-98.333 43 -169 43z" />
    <glyph glyph-name="uacute" unicode="&#xfa;" horiz-adv-x="1671" 
d="M1499 750c0 -106 -14.667 -204.668 -44 -296.001s-72.666 -172.5 -129.999 -243.5s-129.833 -127.167 -217.5 -168.5s-185.834 -62 -294.501 -62c-146.667 0 -272.667 35 -378 105s-184.666 164.333 -237.999 283s-80 248 -80 388c0 49.333 4 97.333 12 144
s19.667 92.667 35 138c29.333 88.667 72.666 166.5 129.999 233.5s129.5 120.333 216.5 160s184.5 59.5 292.5 59.5c115.333 0 216.166 -19.167 302.499 -57.5s158.5 -92.166 216.5 -161.499c28.667 -34 53.834 -70.5 75.501 -109.5s40 -81.333 55 -127s26.5 -92 34.5 -139
s12 -95.833 12 -146.5zM813 138.999c97.333 0 183.667 28.667 259 86s134 132.833 176 226.5s63 192.5 63 296.5c0 100.667 -21.167 196.834 -63.5 288.501s-102.666 165.334 -180.999 221.001s-166.166 83.5 -263.499 83.5c-98 0 -184.833 -26.833 -260.5 -80.5
s-133.834 -125.834 -174.501 -216.501s-61 -187.334 -61 -290.001c0 -107.333 21.333 -208 64 -302s102.667 -169.667 180 -227s164.666 -86 261.999 -86z" />
    <glyph glyph-name="ucircumflex" unicode="&#xfb;" horiz-adv-x="1210" 
d="M586 -14c-70 0 -136.168 12.9971 -198.501 38.9971s-116 63.333 -161 112s-79.667 106.834 -104 174.501s-36.5 139.834 -36.5 216.501c0 66 9.83301 130.5 29.5 193.5s49.334 120.667 89.001 173s91.5 94.833 155.5 127.5s139.333 49 226 49
c113.333 0 207.5 -26 282.5 -78s129.5 -118.333 163.5 -199s51 -165.667 51 -255c0 -82 -12.167 -157.167 -36.5 -225.5s-58.333 -126.666 -102 -174.999s-96.667 -85.833 -159 -112.5s-128.833 -40 -199.5 -40zM585.999 921.997c-66 0 -123.501 -17 -172.501 -51
s-87.167 -82 -114.5 -144s-41 -129.667 -41 -203c0 -74 14 -140.833 42 -200.5s67.333 -106.667 118 -141s107.334 -51.5 170.001 -51.5c64 0 120 15 168 45s85.833 76.167 113.5 138.5s41.5 135.833 41.5 220.5c0 57.333 -7.66699 108.833 -23 154.5s-38 87.167 -68 124.5
c-57.333 72 -135.333 108 -234 108z" />
    <glyph glyph-name="udieresis" unicode="&#xfc;" horiz-adv-x="1561" 
d="M176 1180c0 87.333 19.833 152.999 59.5 196.999s90 73 151 87s133.5 21 217.5 21h197l-2 -445h94c83.333 0 155.5 -12 216.5 -36s111.5 -57 151.5 -99s69.333 -88.667 88 -140c10 -26.667 17.333 -52 22 -76s7 -50.333 7 -79v-176c0 -73.333 -17.167 -144 -51.5 -212
s-88.166 -124.667 -161.499 -170s-164 -68 -272 -68h-272l-56 -2c-70.667 0 -142.334 11 -215.001 33s-134.667 60.667 -186 116c-26.667 28.667 -47.334 61.834 -62.001 99.501s-22 80.167 -22 127.5h190c0 -37.333 7.83301 -71.833 23.5 -103.5s48.5 -59.5 98.5 -83.5
s123.333 -36 220 -36v752h-23c-10 0 -18 -0.666992 -24 -2c-93.333 0 -181.666 21 -264.999 63c-41.333 21.333 -72.333 51 -93 89s-31 85.667 -31 143zM893 886.999h-94.001v-750h94c32.667 0 70.334 6.33301 113.001 19s83 42 121 88s57 113.333 57 202v113
c0 94.667 -18.667 166 -56 214s-77.333 79 -120 93s-81 21 -115 21zM609.999 1038v299.002c-8.66699 0 -23.167 -0.333008 -43.5 -1s-36.5 -1 -48.5 -1c-31.333 0 -59.333 -4.66699 -84 -14c-22 -6.66699 -41 -21.667 -57 -45c-7.33301 -10.667 -13 -24.334 -17 -41.001
s-6 -36.334 -6 -59.001c0 -40.667 11.333 -71 34 -91s53 -32.833 91 -38.5s81.667 -8.5 131 -8.5z" />
    <glyph glyph-name="yacute" unicode="&#xfd;" horiz-adv-x="1413" 
d="M573 -2h-16l-29 -2c-60.667 0 -123.167 6.83301 -187.5 20.5s-122.833 42.5 -175.5 86.5s-79 106.667 -79 188h160c0 -101.333 109 -152 327 -152v750l-43 -2c-85.333 0 -164.666 24.167 -237.999 72.5s-110 124.5 -110 228.5c0 68 17.833 124.167 53.5 168.5
s82.667 76.833 141 97.5s120.5 31 186.5 31h185v-457h124c89.333 0 164.166 -22.667 224.499 -68s105.166 -105.666 134.499 -180.999c14.667 -38 25.834 -76.833 33.501 -116.5s11.5 -80.834 11.5 -123.501c0 -112.667 -17.667 -209.5 -53 -290.5
s-85.833 -142.667 -151.5 -185s-141.5 -63.5 -227.5 -63.5l-92 -2v-426h-179v426zM752 889l0.000976562 -750h75c91.333 0 160.666 36 207.999 108s71 166.333 71 283c0 239.333 -96.333 359 -289 359h-65zM571.001 1028l0.000976562 321.999
c-68 0 -121.5 -11.333 -160.5 -34s-58.5 -62.667 -58.5 -120c0 -47.333 10.167 -83.166 30.5 -107.499s46.166 -40.5 77.499 -48.5s68.333 -12 111 -12z" />
    <glyph glyph-name="thorn" unicode="&#xfe;" horiz-adv-x="348" 
d="M184 1307l-120.998 0.000976562v180h185v-178c0 -24.667 -3.83301 -52.334 -11.5 -83.001s-24.334 -61.167 -50.001 -91.5s-63.834 -53.5 -114.501 -69.5v61c43.333 16 72.833 38.667 88.5 68s23.5 67 23.5 113z" />
    <glyph glyph-name="ydieresis" unicode="&#xff;" horiz-adv-x="348" 
d="M184 1307l-120.998 0.000976562v180h185v-178c0 -24.667 -3.83301 -52.334 -11.5 -83.001s-24.334 -61.167 -50.001 -91.5s-63.834 -53.5 -114.501 -69.5v61c43.333 16 72.833 38.667 88.5 68s23.5 67 23.5 113z" />
    <glyph glyph-name="c274" unicode="&#x112;" horiz-adv-x="682" 
d="M497 637v205h205v-205h-205z" />
    <glyph glyph-name="dotlessi" unicode="&#x131;" horiz-adv-x="569" 
d="M198 0v1062h180v-1062h-180z" />
    <glyph glyph-name="OE" unicode="&#x152;" horiz-adv-x="2048" 
d="M1983 173v-173h-862v212c-90 -158 -223.333 -237 -400 -237c-200 0 -352 77.333 -456 232c-90.667 137.333 -136 313.333 -136 528c0 214 47.333 393.5 142 538.5s244.667 217.5 450 217.5c176 0 309.333 -74.333 400 -223v198h831v-173h-650v-448h599v-172h-599v-500
h681zM720 1334c-67.333 0 -132.834 -21.5 -196.501 -64.5s-112 -109.333 -145 -199s-49.5 -206.5 -49.5 -350.5c0 -202 38.5 -350.667 115.5 -446s168.833 -143 275.5 -143s198.334 47.667 275.001 143s115 252.333 115 471c0 204.667 -38.5 354 -115.5 448
s-168.5 141 -274.5 141z" />
    <glyph glyph-name="oe" unicode="&#x153;" horiz-adv-x="1933" 
d="M978 175c-49.333 -65.333 -107.502 -114.834 -174.502 -148.501s-140.833 -50.5 -221.5 -50.5c-150.667 0 -271.667 47.667 -363 143s-137 228.333 -137 399c0 112 19.333 212.5 58 301.5s98 155.667 178 200s168.667 66.5 266 66.5
c92.667 0 172.834 -19.167 240.501 -57.5s118.834 -86.833 153.501 -145.5c42 62 96.833 111.333 164.5 148s142.5 55 224.5 55c145.333 0 263.333 -50 354 -150s136 -251 136 -453h-784c0 -55.333 7.66699 -104.5 23 -147.5s38.333 -81.5 69 -115.5
c60 -64 134.667 -96 224 -96c66 0 122.667 18.333 170 55s82 92.334 104 167.001l180 -26c-28 -110.667 -81.5 -195.667 -160.5 -255s-177.833 -89 -296.5 -89c-90 0 -170 17.5 -240 52.5s-126 83.833 -168 146.5zM266.998 532.999c0 -124.667 23.667 -219.001 71 -283.001
c61.333 -84 141 -126 239 -126c85.333 0 158.833 35.333 220.5 106s92.5 172.334 92.5 305.001s-30.333 233 -91 301s-134.667 102 -222 102c-58 0 -111.167 -16.167 -159.5 -48.5s-85.5 -80.833 -111.5 -145.5s-39 -135 -39 -211zM1080 630.998l587 0.000976562
c0 48.667 -8 91.667 -24 129s-38.667 70.666 -68 99.999c-52 52 -117.667 78 -197 78c-80.667 0 -148.667 -27.333 -204 -82c-30 -29.333 -52.667 -61.333 -68 -96c-17.333 -39.333 -26 -82.333 -26 -129z" />
    <glyph glyph-name="Scaron" unicode="&#x160;" horiz-adv-x="1366" 
d="M92 471l183 16c8 -72.667 28 -132.5 60 -179.5s81.333 -85.5 148 -115.5c33.333 -14 68.5 -24.667 105.5 -32s76.833 -11 119.5 -11c73.333 0 138.333 11 195 33s99 52 127 90s42 80 42 126c0 46.667 -13.167 86.834 -39.5 120.501s-70.5 62.5 -132.5 86.5
c-34 13.333 -119.833 36.666 -257.5 69.999s-233.167 64.333 -286.5 93c-70 36 -122.167 81.167 -156.5 135.5s-51.5 115.5 -51.5 183.5c0 74 21 143 63 207s103.333 112.833 184 146.5s170.334 50.5 269.001 50.5c108.667 0 204.5 -17.333 287.5 -52
s146.833 -86.334 191.5 -155.001c22.667 -35.333 40.334 -72.5 53.001 -111.5s19 -78.833 19 -119.5l-186 -14c-10 92 -43.833 161.833 -101.5 209.5s-142.834 71.5 -255.501 71.5c-117.333 0 -202.833 -21.333 -256.5 -64s-80.5 -94.667 -80.5 -156
c0 -51.333 18.833 -94.333 56.5 -129s135.167 -69.667 292.5 -105s265.666 -66.666 324.999 -93.999c85.333 -39.333 148.333 -89.333 189 -150c20 -29.333 35.167 -61.5 45.5 -96.5s15.5 -72.167 15.5 -111.5c0 -78 -22 -151.167 -66 -219.5s-108.167 -122 -192.5 -161
s-178.833 -58.5 -283.5 -58.5c-132.667 0 -243.667 19.167 -333 57.5s-160 96.5 -212 174.5c-26 40.667 -45.833 82.667 -59.5 126s-20.5 89.333 -20.5 138zM655 1660l110 170h204l-225 -280h-192l-216 280h206z" />
    <glyph glyph-name="scaron" unicode="&#x161;" horiz-adv-x="1024" 
d="M63 317l178.001 28.002c10 -70.667 37.833 -125.167 83.5 -163.5s109.5 -57.5 191.5 -57.5c82.667 0 144 16.833 184 50.5s60 73.167 60 118.5c0 40.667 -17.667 72.667 -53 96c-23.333 15.333 -84.666 35.666 -183.999 60.999c-66 16.667 -122.167 32.167 -168.5 46.5
s-81.833 27.5 -106.5 39.5c-49.333 24 -87.5 57.667 -114.5 101s-40.5 91 -40.5 143c0 47.333 10.833 91 32.5 131s51.167 73.667 88.5 101c27.333 19.333 65.666 36.5 114.999 51.5s101 22.5 155 22.5c82.667 0 155.5 -12 218.5 -36s109.5 -56.167 139.5 -96.5
s51 -95.5 63 -165.5l-176 -24c-8 53.333 -31.333 95.666 -70 126.999s-92.667 47 -162 47c-82.667 0 -141.667 -13.667 -177 -41s-53 -59.333 -53 -96c0 -23.333 7.16699 -44.333 21.5 -63s37.5 -34.667 69.5 -48l159 -46c125.333 -33.333 214 -61.333 266 -84
c49.333 -20.667 88.666 -52 117.999 -94s44 -93.333 44 -154c0 -60 -17.333 -116.333 -52 -169s-85.5 -93.667 -152.5 -123s-141.5 -44 -223.5 -44c-138.667 0 -244 28.667 -316 86s-118 142.333 -138 255zM507.001 1304l110 170h204l-225 -280h-192l-216 280h206z" />
    <glyph glyph-name="Ydieresis" unicode="&#x178;" horiz-adv-x="1366" 
d="M571 0l-0.000976562 621.002l-565 845h236l289 -442c50.667 -78.667 100.334 -161.334 149.001 -248.001c44.667 77.333 98 163.666 160 258.999l284 431h226l-585 -845v-621h-194zM396.999 1556v205h188v-205h-188zM769.999 1556v205h188v-205h-188z" />
    <glyph glyph-name="florin" unicode="&#x192;" 
d="M46 -405l35 154.999c31.333 -6.66699 60.5 -12 87.5 -16s48.5 -6 64.5 -6c36 0 63.667 9.16699 83 27.5s34.333 59.833 45 124.5l177 1042h-201l24 140h201l24 133c14 80 29 135 45 165c20 40.667 49.333 72.834 88 96.501s89 35.5 151 35.5
c54.667 0 126.334 -12.667 215.001 -38l-35 -153c-68 16 -119.333 24 -154 24c-37.333 0 -65 -9 -83 -27s-34 -62.333 -48 -133l-19 -103h204l-25 -140h-204l-191 -1092c-16.667 -98 -45.334 -166 -86.001 -204s-98.667 -57 -174 -57c-32 0 -66 2 -102 6
s-76.667 10.667 -122 20z" />
    <glyph glyph-name="circumflex" unicode="&#x2c6;" horiz-adv-x="682" 
d="M344 1364l-113 -170h-206l216 280h192l225 -280h-204z" />
    <glyph glyph-name="caron" unicode="&#x2c7;" horiz-adv-x="682" 
d="M359 1304l110 170h204l-225 -280h-192l-216 280h206z" />
    <glyph glyph-name="ring" unicode="&#x2da;" horiz-adv-x="682" 
d="M162 1338c0 48.667 17.999 90.667 53.999 126s78 53 126 53c48.667 0 90.834 -17.833 126.501 -53.5s53.5 -78.834 53.5 -129.501c0 -51.333 -17.667 -94.666 -53 -129.999s-77.333 -53 -126 -53c-50 0 -92.667 17.667 -128 53c-18 18.667 -31.333 38.667 -40 60
s-13 46 -13 74zM237.999 1337c0 -31.333 10.5 -57.667 31.5 -79s45.833 -32 74.5 -32c28 0 52.667 10.667 74 32s32 47 32 77s-10.167 55.667 -30.5 77s-45.5 32 -75.5 32c-28.667 0 -53.5 -10.5 -74.5 -31.5s-31.5 -46.167 -31.5 -75.5z" />
    <glyph glyph-name="tilde" unicode="&#x2dc;" horiz-adv-x="682" 
d="M7 1219c0 68.667 19.001 123.831 57.001 165.498s86.667 62.5 146 62.5c40.667 0 97 -18 169 -54c39.333 -20 70.666 -30 93.999 -30c21.333 0 37.666 5.83301 48.999 17.5s19.333 34.834 24 69.501h130c0 -38 -4.83301 -71.167 -14.5 -99.5
s-24.167 -52.166 -43.5 -71.499c-36 -38 -82 -57 -138 -57c-42.667 0 -98 18.667 -166 56c-44 24 -76.667 36 -98 36s-39.666 -8 -54.999 -24c-14 -16 -21 -39.667 -21 -71h-133z" />
    <glyph glyph-name="endash" unicode="&#x2013;" 
d="M-4 458v145h1139v-145h-1139z" />
    <glyph glyph-name="emdash" unicode="&#x2014;" horiz-adv-x="2048" 
d="M0 458v145h2048v-145h-2048z" />
    <glyph glyph-name="quoteleft" unicode="&#x2018;" horiz-adv-x="455" 
d="M321 1220v-208.999h-193v165c0 89.333 10.667 154 32 194c28 52.667 72.333 93 133 121l44 -70c-36 -14.667 -63 -37.667 -81 -69c-9.33301 -16 -16.5 -34.833 -21.5 -56.5s-7.5 -46.834 -7.5 -75.501h94z" />
    <glyph glyph-name="quoteright" unicode="&#x2019;" horiz-adv-x="455" 
d="M124 1272v208.999h193v-165c0 -89.333 -10.333 -153.666 -31 -192.999c-28 -53.333 -72.667 -94 -134 -122l-44 71c35.333 14 62 37 80 69c10 17.333 17.5 36.5 22.5 57.5s7.5 45.5 7.5 73.5h-94z" />
    <glyph glyph-name="quotesinglbase" unicode="&#x201a;" horiz-adv-x="455" 
d="M124 0v208.997h193v-165c0 -89.333 -10.333 -153.666 -31 -192.999c-28 -53.333 -72.667 -94 -134 -122l-44 71c35.333 14 62 37.333 80 70c10 16.667 17.5 35.334 22.5 56.001s7.5 45.334 7.5 74.001h-94z" />
    <glyph glyph-name="quotedblleft" unicode="&#x201c;" horiz-adv-x="682" 
d="M276 1220v-208.999h-193v165c0 89.333 10.667 154 32 194c28 52.667 72.333 93 133 121l44 -70c-36 -14.667 -63 -37.667 -81 -69c-9.33301 -16 -16.5 -34.833 -21.5 -56.5s-7.5 -46.834 -7.5 -75.501h94zM586 1220v-208.999h-193v165c0 89.333 10.667 154 32 194
c28 52.667 72.333 93 133 121l44 -70c-36 -14.667 -63 -37.667 -81 -69c-9.33301 -16 -16.5 -34.833 -21.5 -56.5s-7.5 -46.834 -7.5 -75.501h94z" />
    <glyph glyph-name="quotedblright" unicode="&#x201d;" horiz-adv-x="682" 
d="M87 1272v208.999h193v-165c0 -89.333 -10.333 -153.666 -31 -192.999c-28 -53.333 -72.667 -94 -134 -122l-44 71c35.333 14 62 37 80 69c10 17.333 17.5 36.5 22.5 57.5s7.5 45.5 7.5 73.5h-94zM397 1272v208.999h193v-165c0 -89.333 -10.333 -153.666 -31 -192.999
c-28 -53.333 -72.667 -94 -134 -122l-44 71c35.333 14 62 37 80 69c10 17.333 17.5 36.5 22.5 57.5s7.5 45.5 7.5 73.5h-94z" />
    <glyph glyph-name="quotedblbase" unicode="&#x201e;" horiz-adv-x="682" 
d="M87 0v208.997h193v-165c0 -89.333 -10.333 -153.666 -31 -192.999c-28 -53.333 -72.667 -94 -134 -122l-44 71c35.333 14 62 37.333 80 70c10 16.667 17.5 35.334 22.5 56.001s7.5 45.334 7.5 74.001h-94zM397 -0.00292969v208.997h193v-165
c0 -89.333 -10.333 -153.666 -31 -192.999c-28 -53.333 -72.667 -94 -134 -122l-44 71c35.333 14 62 37.333 80 70c10 16.667 17.5 35.334 22.5 56.001s7.5 45.334 7.5 74.001h-94z" />
    <glyph glyph-name="dagger" unicode="&#x2020;" 
d="M472 -346v1212h-399v160h399v406h180v-406h402v-160h-402v-1212h-180z" />
    <glyph glyph-name="daggerdbl" unicode="&#x2021;" 
d="M475 -346v370h-402v161h402v725h-402v161h402v375h180v-375h403v-161h-403v-725h403v-161h-403v-370h-180z" />
    <glyph glyph-name="bullet" unicode="&#x2022;" horiz-adv-x="717" 
d="M109 718c0 70 25 129.667 75 179s109.333 74 178 74c70 0 129.833 -24.667 179.5 -74s74.5 -109 74.5 -179s-24.833 -129.833 -74.5 -179.5s-109.5 -74.5 -179.5 -74.5c-69.333 0 -128.833 25 -178.5 75s-74.5 109.667 -74.5 179z" />
    <glyph glyph-name="ellipsis" unicode="&#x2026;" horiz-adv-x="2048" 
d="M239 0v205h205v-205h-205zM922 0v205h205v-205h-205zM1604 0v205h206v-205h-206z" />
    <glyph glyph-name="perthousand" unicode="&#x2030;" horiz-adv-x="2048" 
d="M320 -54l601 1545h131l-600 -1545h-132zM37 1099c0 131.333 26.167 227.5 78.5 288.5s121.5 91.5 207.5 91.5c84.667 0 153.834 -30.333 207.501 -91s80.5 -155.667 80.5 -285c0 -130 -23.167 -228.333 -69.5 -295s-118.5 -100 -216.5 -100
c-84.667 0 -153.834 31.167 -207.501 93.5s-80.5 161.5 -80.5 297.5zM185 1091c0 -100.667 13.001 -168.834 39.001 -204.501s61 -53.5 105 -53.5c38.667 0 69 15 91 45c28.667 40.667 43 112.334 43 215.001c0 101.333 -14.667 173 -44 215c-22 31.333 -53.333 47 -94 47
s-72.334 -15.333 -95.001 -46c-30 -42 -45 -114.667 -45 -218zM763.001 336c0 131.333 26.167 227.5 78.5 288.5s121.166 91.5 206.499 91.5c84.667 0 154 -30.167 208 -90.5s81 -155.5 81 -285.5s-23.167 -228.167 -69.5 -294.5s-118.5 -99.5 -216.5 -99.5
c-85.333 0 -154.666 31 -207.999 93s-80 161 -80 297zM911.001 328c0 -99.333 13.001 -167.168 39.001 -203.501s61 -54.5 105 -54.5c38.667 0 69 15 91 45c28.667 40.667 43 112.334 43 215.001c0 101.333 -15 173 -45 215c-22 31.333 -53 47 -93 47
c-40.667 0 -72.334 -15.333 -95.001 -46c-30 -41.333 -45 -114 -45 -218zM1437 335.998c0 131.333 26.165 227.5 78.498 288.5s121.5 91.5 207.5 91.5c84.667 0 153.834 -30.333 207.501 -91s80.5 -155.667 80.5 -285c0 -130 -23.167 -228.167 -69.5 -294.5
s-118.5 -99.5 -216.5 -99.5c-85.333 0 -154.666 31 -207.999 93s-80 161 -80 297zM1585 327.998c0 -99.333 13.001 -167.168 39.001 -203.501s61 -54.5 105 -54.5c38.667 0 69 15 91 45c28.667 40.667 43 112.334 43 215.001c0 102 -14.667 173.667 -44 215
c-22 31.333 -53.333 47 -94 47s-72.334 -15.333 -95.001 -46c-30 -41.333 -45 -114 -45 -218z" />
    <glyph glyph-name="guilsinglleft" unicode="&#x2039;" horiz-adv-x="682" 
d="M291 527l265 -455h-149l-315 455l315 457h149z" />
    <glyph glyph-name="guilsinglright" unicode="&#x203a;" horiz-adv-x="682" 
d="M392 530l-265 454h149l304 -448l-304 -464h-149z" />
    <glyph glyph-name="trademark" unicode="&#x2122;" horiz-adv-x="2048" 
d="M489 651v694h-264v121h666v-121h-266v-694h-136zM982 651v815h200l206 -651l199 651h196v-815h-124v684l-210 -684h-123l-219 694v-694h-125z" />
    <glyph glyph-name=".null" horiz-adv-x="0" 
 />
    <glyph glyph-name="nonmarkingreturn" horiz-adv-x="569" 
 />
    </font>
</defs>
</svg>
